<svg xmlns="http://www.w3.org/2000/svg" viewBox="0 0 124 115" shape-rendering="crispEdges" fill="#000"><rect x="28" y="0" width="1" height="1"></rect><rect x="21" y="1" width="1" height="1"></rect><rect x="27" y="1" width="3" height="1"></rect><rect x="39" y="1" width="1" height="1"></rect><rect x="41" y="1" width="1" height="1"></rect><rect x="19" y="2" width="12" height="1"></rect><rect x="36" y="2" width="8" height="1"></rect><rect x="46" y="2" width="2" height="1"></rect><rect x="19" y="3" width="12" height="1"></rect><rect x="35" y="3" width="13" height="1"></rect><rect x="19" y="4" width="13" height="1"></rect><rect x="34" y="4" width="19" height="1"></rect><rect x="17" y="5" width="36" height="1"></rect><rect x="9" y="6" width="1" height="1"></rect><rect x="14" y="6" width="1" height="1"></rect><rect x="17" y="6" width="15" height="1"></rect><rect x="33" y="6" width="16" height="1"></rect><rect x="10" y="7" width="1" height="1"></rect><rect x="14" y="7" width="1" height="1"></rect><rect x="17" y="7" width="30" height="1"></rect><rect x="52" y="7" width="3" height="1"></rect><rect x="9" y="8" width="1" height="1"></rect><rect x="11" y="8" width="1" height="1"></rect><rect x="16" y="8" width="35" height="1"></rect><rect x="10" y="9" width="34" height="1"></rect><rect x="46" y="9" width="5" height="1"></rect><rect x="52" y="9" width="3" height="1"></rect><rect x="57" y="9" width="1" height="1"></rect><rect x="10" y="10" width="10" height="1"></rect><rect x="21" y="10" width="35" height="1"></rect><rect x="57" y="10" width="1" height="1"></rect><rect x="11" y="11" width="10" height="1"></rect><rect x="26" y="11" width="33" height="1"></rect><rect x="11" y="12" width="10" height="1"></rect><rect x="22" y="12" width="35" height="1"></rect><rect x="12" y="13" width="9" height="1"></rect><rect x="22" y="13" width="5" height="1"></rect><rect x="29" y="13" width="28" height="1"></rect><rect x="12" y="14" width="15" height="1"></rect><rect x="29" y="14" width="1" height="1"></rect><rect x="32" y="14" width="23" height="1"></rect><rect x="13" y="15" width="2" height="1"></rect><rect x="18" y="15" width="13" height="1"></rect><rect x="32" y="15" width="24" height="1"></rect><rect x="58" y="15" width="3" height="1"></rect><rect x="13" y="16" width="2" height="1"></rect><rect x="18" y="16" width="16" height="1"></rect><rect x="36" y="16" width="25" height="1"></rect><rect x="12" y="17" width="2" height="1"></rect><rect x="19" y="17" width="41" height="1"></rect><rect x="61" y="17" width="4" height="1"></rect><rect x="12" y="18" width="1" height="1"></rect><rect x="15" y="18" width="52" height="1"></rect><rect x="8" y="19" width="1" height="1"></rect><rect x="10" y="19" width="4" height="1"></rect><rect x="15" y="19" width="47" height="1"></rect><rect x="67" y="19" width="2" height="1"></rect><rect x="9" y="20" width="1" height="1"></rect><rect x="11" y="20" width="49" height="1"></rect><rect x="10" y="21" width="48" height="1"></rect><rect x="10" y="22" width="48" height="1"></rect><rect x="6" y="23" width="1" height="1"></rect><rect x="10" y="23" width="50" height="1"></rect><rect x="6" y="24" width="1" height="1"></rect><rect x="9" y="24" width="51" height="1"></rect><rect x="5" y="25" width="1" height="1"></rect><rect x="8" y="25" width="54" height="1"></rect><rect x="5" y="26" width="4" height="1"></rect><rect x="10" y="26" width="18" height="1"></rect><rect x="29" y="26" width="33" height="1"></rect><rect x="4" y="27" width="1" height="1"></rect><rect x="6" y="27" width="2" height="1"></rect><rect x="10" y="27" width="56" height="1"></rect><rect x="5" y="28" width="3" height="1"></rect><rect x="9" y="28" width="53" height="1"></rect><rect x="3" y="29" width="1" height="1"></rect><rect x="5" y="29" width="1" height="1"></rect><rect x="8" y="29" width="53" height="1"></rect><rect x="4" y="30" width="1" height="1"></rect><rect x="6" y="30" width="17" height="1"></rect><rect x="27" y="30" width="36" height="1"></rect><rect x="65" y="30" width="2" height="1"></rect><rect x="4" y="31" width="6" height="1"></rect><rect x="11" y="31" width="12" height="1"></rect><rect x="28" y="31" width="23" height="1"></rect><rect x="52" y="31" width="12" height="1"></rect><rect x="3" y="32" width="7" height="1"></rect><rect x="11" y="32" width="11" height="1"></rect><rect x="28" y="32" width="23" height="1"></rect><rect x="52" y="32" width="12" height="1"></rect><rect x="6" y="33" width="15" height="1"></rect><rect x="29" y="33" width="36" height="1"></rect><rect x="5" y="34" width="15" height="1"></rect><rect x="30" y="34" width="33" height="1"></rect><rect x="65" y="34" width="1" height="1"></rect><rect x="5" y="35" width="13" height="1"></rect><rect x="31" y="35" width="33" height="1"></rect><rect x="2" y="36" width="1" height="1"></rect><rect x="6" y="36" width="10" height="1"></rect><rect x="31" y="36" width="20" height="1"></rect><rect x="52" y="36" width="13" height="1"></rect><rect x="1" y="37" width="4" height="1"></rect><rect x="6" y="37" width="8" height="1"></rect><rect x="30" y="37" width="19" height="1"></rect><rect x="52" y="37" width="14" height="1"></rect><rect x="0" y="38" width="1" height="1"></rect><rect x="2" y="38" width="6" height="1"></rect><rect x="9" y="38" width="3" height="1"></rect><rect x="30" y="38" width="18" height="1"></rect><rect x="52" y="38" width="15" height="1"></rect><rect x="1" y="39" width="9" height="1"></rect><rect x="30" y="39" width="17" height="1"></rect><rect x="50" y="39" width="7" height="1"></rect><rect x="58" y="39" width="9" height="1"></rect><rect x="68" y="39" width="1" height="1"></rect><rect x="76" y="39" width="5" height="1"></rect><rect x="1" y="40" width="9" height="1"></rect><rect x="31" y="40" width="15" height="1"></rect><rect x="50" y="40" width="4" height="1"></rect><rect x="55" y="40" width="1" height="1"></rect><rect x="58" y="40" width="9" height="1"></rect><rect x="75" y="40" width="7" height="1"></rect><rect x="1" y="41" width="1" height="1"></rect><rect x="3" y="41" width="6" height="1"></rect><rect x="31" y="41" width="15" height="1"></rect><rect x="50" y="41" width="3" height="1"></rect><rect x="58" y="41" width="10" height="1"></rect><rect x="76" y="41" width="5" height="1"></rect><rect x="3" y="42" width="5" height="1"></rect><rect x="31" y="42" width="15" height="1"></rect><rect x="50" y="42" width="2" height="1"></rect><rect x="54" y="42" width="1" height="1"></rect><rect x="57" y="42" width="15" height="1"></rect><rect x="86" y="42" width="2" height="1"></rect><rect x="4" y="43" width="3" height="1"></rect><rect x="30" y="43" width="8" height="1"></rect><rect x="39" y="43" width="7" height="1"></rect><rect x="49" y="43" width="2" height="1"></rect><rect x="54" y="43" width="25" height="1"></rect><rect x="86" y="43" width="3" height="1"></rect><rect x="30" y="44" width="8" height="1"></rect><rect x="39" y="44" width="5" height="1"></rect><rect x="49" y="44" width="1" height="1"></rect><rect x="52" y="44" width="33" height="1"></rect><rect x="87" y="44" width="4" height="1"></rect><rect x="30" y="45" width="13" height="1"></rect><rect x="48" y="45" width="2" height="1"></rect><rect x="51" y="45" width="35" height="1"></rect><rect x="89" y="45" width="4" height="1"></rect><rect x="95" y="45" width="1" height="1"></rect><rect x="29" y="46" width="14" height="1"></rect><rect x="48" y="46" width="1" height="1"></rect><rect x="50" y="46" width="29" height="1"></rect><rect x="85" y="46" width="1" height="1"></rect><rect x="89" y="46" width="5" height="1"></rect><rect x="96" y="46" width="3" height="1"></rect><rect x="29" y="47" width="9" height="1"></rect><rect x="39" y="47" width="3" height="1"></rect><rect x="47" y="47" width="1" height="1"></rect><rect x="49" y="47" width="31" height="1"></rect><rect x="86" y="47" width="1" height="1"></rect><rect x="92" y="47" width="3" height="1"></rect><rect x="97" y="47" width="4" height="1"></rect><rect x="28" y="48" width="14" height="1"></rect><rect x="48" y="48" width="32" height="1"></rect><rect x="85" y="48" width="4" height="1"></rect><rect x="91" y="48" width="5" height="1"></rect><rect x="98" y="48" width="4" height="1"></rect><rect x="28" y="49" width="14" height="1"></rect><rect x="45" y="49" width="15" height="1"></rect><rect x="61" y="49" width="20" height="1"></rect><rect x="85" y="49" width="12" height="1"></rect><rect x="99" y="49" width="5" height="1"></rect><rect x="27" y="50" width="14" height="1"></rect><rect x="44" y="50" width="16" height="1"></rect><rect x="61" y="50" width="20" height="1"></rect><rect x="85" y="50" width="12" height="1"></rect><rect x="98" y="50" width="1" height="1"></rect><rect x="100" y="50" width="4" height="1"></rect><rect x="27" y="51" width="14" height="1"></rect><rect x="42" y="51" width="18" height="1"></rect><rect x="61" y="51" width="21" height="1"></rect><rect x="85" y="51" width="6" height="1"></rect><rect x="92" y="51" width="8" height="1"></rect><rect x="101" y="51" width="4" height="1"></rect><rect x="27" y="52" width="14" height="1"></rect><rect x="42" y="52" width="18" height="1"></rect><rect x="61" y="52" width="22" height="1"></rect><rect x="86" y="52" width="6" height="1"></rect><rect x="93" y="52" width="8" height="1"></rect><rect x="102" y="52" width="4" height="1"></rect><rect x="27" y="53" width="33" height="1"></rect><rect x="61" y="53" width="22" height="1"></rect><rect x="86" y="53" width="10" height="1"></rect><rect x="98" y="53" width="9" height="1"></rect><rect x="27" y="54" width="31" height="1"></rect><rect x="60" y="54" width="25" height="1"></rect><rect x="86" y="54" width="12" height="1"></rect><rect x="99" y="54" width="3" height="1"></rect><rect x="103" y="54" width="5" height="1"></rect><rect x="28" y="55" width="3" height="1"></rect><rect x="33" y="55" width="7" height="1"></rect><rect x="41" y="55" width="44" height="1"></rect><rect x="86" y="55" width="7" height="1"></rect><rect x="94" y="55" width="9" height="1"></rect><rect x="104" y="55" width="4" height="1"></rect><rect x="28" y="56" width="2" height="1"></rect><rect x="36" y="56" width="67" height="1"></rect><rect x="104" y="56" width="6" height="1"></rect><rect x="29" y="57" width="1" height="1"></rect><rect x="31" y="57" width="6" height="1"></rect><rect x="39" y="57" width="1" height="1"></rect><rect x="41" y="57" width="45" height="1"></rect><rect x="87" y="57" width="1" height="1"></rect><rect x="89" y="57" width="22" height="1"></rect><rect x="27" y="58" width="10" height="1"></rect><rect x="39" y="58" width="1" height="1"></rect><rect x="41" y="58" width="46" height="1"></rect><rect x="89" y="58" width="23" height="1"></rect><rect x="26" y="59" width="11" height="1"></rect><rect x="39" y="59" width="48" height="1"></rect><rect x="89" y="59" width="23" height="1"></rect><rect x="25" y="60" width="63" height="1"></rect><rect x="89" y="60" width="23" height="1"></rect><rect x="24" y="61" width="33" height="1"></rect><rect x="58" y="61" width="30" height="1"></rect><rect x="89" y="61" width="25" height="1"></rect><rect x="24" y="62" width="64" height="1"></rect><rect x="89" y="62" width="26" height="1"></rect><rect x="22" y="63" width="26" height="1"></rect><rect x="49" y="63" width="66" height="1"></rect><rect x="21" y="64" width="27" height="1"></rect><rect x="49" y="64" width="68" height="1"></rect><rect x="17" y="65" width="30" height="1"></rect><rect x="48" y="65" width="69" height="1"></rect><rect x="15" y="66" width="1" height="1"></rect><rect x="18" y="66" width="101" height="1"></rect><rect x="15" y="67" width="1" height="1"></rect><rect x="18" y="67" width="26" height="1"></rect><rect x="46" y="67" width="76" height="1"></rect><rect x="14" y="68" width="1" height="1"></rect><rect x="18" y="68" width="5" height="1"></rect><rect x="24" y="68" width="14" height="1"></rect><rect x="39" y="68" width="3" height="1"></rect><rect x="45" y="68" width="76" height="1"></rect><rect x="123" y="68" width="1" height="1"></rect><rect x="14" y="69" width="3" height="1"></rect><rect x="18" y="69" width="5" height="1"></rect><rect x="24" y="69" width="13" height="1"></rect><rect x="39" y="69" width="3" height="1"></rect><rect x="44" y="69" width="77" height="1"></rect><rect x="122" y="69" width="2" height="1"></rect><rect x="14" y="70" width="4" height="1"></rect><rect x="19" y="70" width="16" height="1"></rect><rect x="40" y="70" width="2" height="1"></rect><rect x="43" y="70" width="81" height="1"></rect><rect x="14" y="71" width="7" height="1"></rect><rect x="26" y="71" width="3" height="1"></rect><rect x="30" y="71" width="3" height="1"></rect><rect x="39" y="71" width="66" height="1"></rect><rect x="106" y="71" width="10" height="1"></rect><rect x="117" y="71" width="7" height="1"></rect><rect x="13" y="72" width="6" height="1"></rect><rect x="39" y="72" width="64" height="1"></rect><rect x="104" y="72" width="1" height="1"></rect><rect x="106" y="72" width="15" height="1"></rect><rect x="122" y="72" width="2" height="1"></rect><rect x="13" y="73" width="6" height="1"></rect><rect x="38" y="73" width="44" height="1"></rect><rect x="86" y="73" width="17" height="1"></rect><rect x="106" y="73" width="1" height="1"></rect><rect x="108" y="73" width="16" height="1"></rect><rect x="13" y="74" width="5" height="1"></rect><rect x="36" y="74" width="12" height="1"></rect><rect x="52" y="74" width="28" height="1"></rect><rect x="88" y="74" width="15" height="1"></rect><rect x="104" y="74" width="1" height="1"></rect><rect x="106" y="74" width="1" height="1"></rect><rect x="110" y="74" width="14" height="1"></rect><rect x="13" y="75" width="5" height="1"></rect><rect x="35" y="75" width="12" height="1"></rect><rect x="58" y="75" width="16" height="1"></rect><rect x="88" y="75" width="17" height="1"></rect><rect x="107" y="75" width="1" height="1"></rect><rect x="112" y="75" width="12" height="1"></rect><rect x="13" y="76" width="3" height="1"></rect><rect x="32" y="76" width="12" height="1"></rect><rect x="60" y="76" width="11" height="1"></rect><rect x="87" y="76" width="20" height="1"></rect><rect x="110" y="76" width="14" height="1"></rect><rect x="12" y="77" width="4" height="1"></rect><rect x="31" y="77" width="2" height="1"></rect><rect x="34" y="77" width="3" height="1"></rect><rect x="38" y="77" width="4" height="1"></rect><rect x="60" y="77" width="10" height="1"></rect><rect x="88" y="77" width="1" height="1"></rect><rect x="90" y="77" width="13" height="1"></rect><rect x="105" y="77" width="1" height="1"></rect><rect x="111" y="77" width="13" height="1"></rect><rect x="12" y="78" width="4" height="1"></rect><rect x="32" y="78" width="1" height="1"></rect><rect x="34" y="78" width="3" height="1"></rect><rect x="38" y="78" width="4" height="1"></rect><rect x="60" y="78" width="9" height="1"></rect><rect x="91" y="78" width="12" height="1"></rect><rect x="111" y="78" width="13" height="1"></rect><rect x="12" y="79" width="4" height="1"></rect><rect x="30" y="79" width="1" height="1"></rect><rect x="32" y="79" width="9" height="1"></rect><rect x="60" y="79" width="9" height="1"></rect><rect x="92" y="79" width="10" height="1"></rect><rect x="107" y="79" width="2" height="1"></rect><rect x="111" y="79" width="13" height="1"></rect><rect x="12" y="80" width="4" height="1"></rect><rect x="29" y="80" width="1" height="1"></rect><rect x="32" y="80" width="7" height="1"></rect><rect x="60" y="80" width="9" height="1"></rect><rect x="91" y="80" width="11" height="1"></rect><rect x="110" y="80" width="1" height="1"></rect><rect x="113" y="80" width="11" height="1"></rect><rect x="11" y="81" width="5" height="1"></rect><rect x="28" y="81" width="2" height="1"></rect><rect x="32" y="81" width="6" height="1"></rect><rect x="60" y="81" width="8" height="1"></rect><rect x="90" y="81" width="12" height="1"></rect><rect x="111" y="81" width="1" height="1"></rect><rect x="117" y="81" width="7" height="1"></rect><rect x="11" y="82" width="4" height="1"></rect><rect x="28" y="82" width="2" height="1"></rect><rect x="31" y="82" width="6" height="1"></rect><rect x="60" y="82" width="8" height="1"></rect><rect x="92" y="82" width="8" height="1"></rect><rect x="112" y="82" width="1" height="1"></rect><rect x="114" y="82" width="1" height="1"></rect><rect x="123" y="82" width="1" height="1"></rect><rect x="10" y="83" width="5" height="1"></rect><rect x="28" y="83" width="8" height="1"></rect><rect x="60" y="83" width="8" height="1"></rect><rect x="93" y="83" width="7" height="1"></rect><rect x="113" y="83" width="6" height="1"></rect><rect x="10" y="84" width="6" height="1"></rect><rect x="28" y="84" width="6" height="1"></rect><rect x="60" y="84" width="8" height="1"></rect><rect x="93" y="84" width="7" height="1"></rect><rect x="121" y="84" width="1" height="1"></rect><rect x="10" y="85" width="8" height="1"></rect><rect x="28" y="85" width="5" height="1"></rect><rect x="60" y="85" width="7" height="1"></rect><rect x="93" y="85" width="9" height="1"></rect><rect x="11" y="86" width="7" height="1"></rect><rect x="28" y="86" width="4" height="1"></rect><rect x="59" y="86" width="8" height="1"></rect><rect x="94" y="86" width="8" height="1"></rect><rect x="12" y="87" width="6" height="1"></rect><rect x="27" y="87" width="5" height="1"></rect><rect x="59" y="87" width="8" height="1"></rect><rect x="94" y="87" width="8" height="1"></rect><rect x="12" y="88" width="8" height="1"></rect><rect x="26" y="88" width="6" height="1"></rect><rect x="59" y="88" width="8" height="1"></rect><rect x="95" y="88" width="7" height="1"></rect><rect x="12" y="89" width="9" height="1"></rect><rect x="26" y="89" width="5" height="1"></rect><rect x="58" y="89" width="9" height="1"></rect><rect x="95" y="89" width="7" height="1"></rect><rect x="12" y="90" width="9" height="1"></rect><rect x="26" y="90" width="5" height="1"></rect><rect x="57" y="90" width="10" height="1"></rect><rect x="96" y="90" width="7" height="1"></rect><rect x="12" y="91" width="7" height="1"></rect><rect x="20" y="91" width="2" height="1"></rect><rect x="24" y="91" width="6" height="1"></rect><rect x="54" y="91" width="13" height="1"></rect><rect x="96" y="91" width="8" height="1"></rect><rect x="12" y="92" width="10" height="1"></rect><rect x="23" y="92" width="6" height="1"></rect><rect x="51" y="92" width="16" height="1"></rect><rect x="97" y="92" width="7" height="1"></rect><rect x="13" y="93" width="16" height="1"></rect><rect x="49" y="93" width="16" height="1"></rect><rect x="97" y="93" width="7" height="1"></rect><rect x="14" y="94" width="1" height="1"></rect><rect x="17" y="94" width="11" height="1"></rect><rect x="46" y="94" width="14" height="1"></rect><rect x="97" y="94" width="6" height="1"></rect><rect x="18" y="95" width="10" height="1"></rect><rect x="46" y="95" width="12" height="1"></rect><rect x="97" y="95" width="5" height="1"></rect><rect x="18" y="96" width="10" height="1"></rect><rect x="45" y="96" width="9" height="1"></rect><rect x="97" y="96" width="5" height="1"></rect><rect x="19" y="97" width="1" height="1"></rect><rect x="21" y="97" width="7" height="1"></rect><rect x="45" y="97" width="8" height="1"></rect><rect x="97" y="97" width="6" height="1"></rect><rect x="18" y="98" width="2" height="1"></rect><rect x="21" y="98" width="7" height="1"></rect><rect x="44" y="98" width="8" height="1"></rect><rect x="97" y="98" width="6" height="1"></rect><rect x="21" y="99" width="7" height="1"></rect><rect x="42" y="99" width="9" height="1"></rect><rect x="97" y="99" width="6" height="1"></rect><rect x="21" y="100" width="7" height="1"></rect><rect x="42" y="100" width="7" height="1"></rect><rect x="98" y="100" width="5" height="1"></rect><rect x="20" y="101" width="7" height="1"></rect><rect x="41" y="101" width="9" height="1"></rect><rect x="98" y="101" width="5" height="1"></rect><rect x="20" y="102" width="7" height="1"></rect><rect x="40" y="102" width="12" height="1"></rect><rect x="99" y="102" width="3" height="1"></rect><rect x="19" y="103" width="8" height="1"></rect><rect x="40" y="103" width="11" height="1"></rect><rect x="99" y="103" width="3" height="1"></rect><rect x="19" y="104" width="8" height="1"></rect><rect x="40" y="104" width="11" height="1"></rect><rect x="99" y="104" width="3" height="1"></rect><rect x="19" y="105" width="8" height="1"></rect><rect x="40" y="105" width="1" height="1"></rect><rect x="42" y="105" width="9" height="1"></rect><rect x="99" y="105" width="3" height="1"></rect><rect x="20" y="106" width="7" height="1"></rect><rect x="40" y="106" width="1" height="1"></rect><rect x="42" y="106" width="8" height="1"></rect><rect x="99" y="106" width="3" height="1"></rect><rect x="20" y="107" width="7" height="1"></rect><rect x="40" y="107" width="1" height="1"></rect><rect x="42" y="107" width="7" height="1"></rect><rect x="99" y="107" width="3" height="1"></rect><rect x="20" y="108" width="6" height="1"></rect><rect x="39" y="108" width="8" height="1"></rect><rect x="98" y="108" width="2" height="1"></rect><rect x="105" y="108" width="2" height="1"></rect><rect x="20" y="109" width="6" height="1"></rect><rect x="40" y="109" width="4" height="1"></rect><rect x="102" y="109" width="6" height="1"></rect><rect x="20" y="110" width="5" height="1"></rect><rect x="98" y="110" width="9" height="1"></rect><rect x="20" y="111" width="3" height="1"></rect><rect x="97" y="111" width="1" height="1"></rect><rect x="99" y="111" width="3" height="1"></rect><rect x="103" y="111" width="5" height="1"></rect><rect x="98" y="112" width="1" height="1"></rect><rect x="103" y="112" width="5" height="1"></rect><rect x="98" y="113" width="1" height="1"></rect><rect x="103" y="113" width="5" height="1"></rect><rect x="95" y="114" width="4" height="1"></rect><rect x="106" y="114" width="1" height="1"></rect></svg>