<svg xmlns="http://www.w3.org/2000/svg" viewBox="0 0 160 144" shape-rendering="crispEdges" fill="#000"><rect x="0" y="0" width="1" height="1"></rect><rect x="2" y="0" width="4" height="1"></rect><rect x="7" y="0" width="95" height="1"></rect><rect x="103" y="0" width="16" height="1"></rect><rect x="129" y="0" width="4" height="1"></rect><rect x="1" y="1" width="102" height="1"></rect><rect x="104" y="1" width="16" height="1"></rect><rect x="124" y="1" width="1" height="1"></rect><rect x="127" y="1" width="1" height="1"></rect><rect x="129" y="1" width="2" height="1"></rect><rect x="134" y="1" width="1" height="1"></rect><rect x="145" y="1" width="2" height="1"></rect><rect x="0" y="2" width="104" height="1"></rect><rect x="108" y="2" width="3" height="1"></rect><rect x="113" y="2" width="1" height="1"></rect><rect x="115" y="2" width="1" height="1"></rect><rect x="118" y="2" width="2" height="1"></rect><rect x="124" y="2" width="1" height="1"></rect><rect x="126" y="2" width="2" height="1"></rect><rect x="130" y="2" width="1" height="1"></rect><rect x="0" y="3" width="98" height="1"></rect><rect x="99" y="3" width="12" height="1"></rect><rect x="113" y="3" width="3" height="1"></rect><rect x="117" y="3" width="2" height="1"></rect><rect x="121" y="3" width="2" height="1"></rect><rect x="130" y="3" width="1" height="1"></rect><rect x="134" y="3" width="1" height="1"></rect><rect x="139" y="3" width="1" height="1"></rect><rect x="146" y="3" width="1" height="1"></rect><rect x="148" y="3" width="2" height="1"></rect><rect x="0" y="4" width="104" height="1"></rect><rect x="105" y="4" width="15" height="1"></rect><rect x="122" y="4" width="1" height="1"></rect><rect x="126" y="4" width="1" height="1"></rect><rect x="132" y="4" width="2" height="1"></rect><rect x="135" y="4" width="1" height="1"></rect><rect x="143" y="4" width="1" height="1"></rect><rect x="0" y="5" width="98" height="1"></rect><rect x="100" y="5" width="21" height="1"></rect><rect x="124" y="5" width="1" height="1"></rect><rect x="126" y="5" width="1" height="1"></rect><rect x="128" y="5" width="1" height="1"></rect><rect x="131" y="5" width="3" height="1"></rect><rect x="135" y="5" width="1" height="1"></rect><rect x="138" y="5" width="2" height="1"></rect><rect x="141" y="5" width="1" height="1"></rect><rect x="143" y="5" width="1" height="1"></rect><rect x="145" y="5" width="1" height="1"></rect><rect x="0" y="6" width="128" height="1"></rect><rect x="131" y="6" width="2" height="1"></rect><rect x="140" y="6" width="1" height="1"></rect><rect x="144" y="6" width="1" height="1"></rect><rect x="0" y="7" width="127" height="1"></rect><rect x="133" y="7" width="1" height="1"></rect><rect x="135" y="7" width="2" height="1"></rect><rect x="140" y="7" width="1" height="1"></rect><rect x="145" y="7" width="1" height="1"></rect><rect x="0" y="8" width="129" height="1"></rect><rect x="130" y="8" width="1" height="1"></rect><rect x="132" y="8" width="7" height="1"></rect><rect x="0" y="9" width="137" height="1"></rect><rect x="138" y="9" width="5" height="1"></rect><rect x="0" y="10" width="139" height="1"></rect><rect x="140" y="10" width="1" height="1"></rect><rect x="0" y="11" width="136" height="1"></rect><rect x="137" y="11" width="2" height="1"></rect><rect x="142" y="11" width="2" height="1"></rect><rect x="0" y="12" width="140" height="1"></rect><rect x="151" y="12" width="1" height="1"></rect><rect x="153" y="12" width="1" height="1"></rect><rect x="0" y="13" width="136" height="1"></rect><rect x="137" y="13" width="1" height="1"></rect><rect x="139" y="13" width="3" height="1"></rect><rect x="147" y="13" width="1" height="1"></rect><rect x="149" y="13" width="1" height="1"></rect><rect x="0" y="14" width="138" height="1"></rect><rect x="139" y="14" width="1" height="1"></rect><rect x="142" y="14" width="2" height="1"></rect><rect x="145" y="14" width="1" height="1"></rect><rect x="147" y="14" width="3" height="1"></rect><rect x="0" y="15" width="137" height="1"></rect><rect x="138" y="15" width="1" height="1"></rect><rect x="140" y="15" width="1" height="1"></rect><rect x="143" y="15" width="3" height="1"></rect><rect x="148" y="15" width="2" height="1"></rect><rect x="0" y="16" width="134" height="1"></rect><rect x="136" y="16" width="1" height="1"></rect><rect x="138" y="16" width="4" height="1"></rect><rect x="143" y="16" width="4" height="1"></rect><rect x="148" y="16" width="4" height="1"></rect><rect x="0" y="17" width="45" height="1"></rect><rect x="54" y="17" width="26" height="1"></rect><rect x="85" y="17" width="53" height="1"></rect><rect x="139" y="17" width="1" height="1"></rect><rect x="141" y="17" width="7" height="1"></rect><rect x="0" y="18" width="42" height="1"></rect><rect x="55" y="18" width="23" height="1"></rect><rect x="88" y="18" width="47" height="1"></rect><rect x="136" y="18" width="12" height="1"></rect><rect x="150" y="18" width="1" height="1"></rect><rect x="0" y="19" width="39" height="1"></rect><rect x="56" y="19" width="22" height="1"></rect><rect x="88" y="19" width="47" height="1"></rect><rect x="138" y="19" width="8" height="1"></rect><rect x="147" y="19" width="1" height="1"></rect><rect x="149" y="19" width="1" height="1"></rect><rect x="151" y="19" width="1" height="1"></rect><rect x="0" y="20" width="38" height="1"></rect><rect x="56" y="20" width="21" height="1"></rect><rect x="88" y="20" width="46" height="1"></rect><rect x="135" y="20" width="1" height="1"></rect><rect x="137" y="20" width="7" height="1"></rect><rect x="146" y="20" width="3" height="1"></rect><rect x="0" y="21" width="39" height="1"></rect><rect x="58" y="21" width="15" height="1"></rect><rect x="89" y="21" width="33" height="1"></rect><rect x="123" y="21" width="5" height="1"></rect><rect x="129" y="21" width="18" height="1"></rect><rect x="148" y="21" width="2" height="1"></rect><rect x="0" y="22" width="36" height="1"></rect><rect x="37" y="22" width="2" height="1"></rect><rect x="59" y="22" width="13" height="1"></rect><rect x="89" y="22" width="56" height="1"></rect><rect x="147" y="22" width="2" height="1"></rect><rect x="151" y="22" width="1" height="1"></rect><rect x="154" y="22" width="2" height="1"></rect><rect x="0" y="23" width="36" height="1"></rect><rect x="38" y="23" width="1" height="1"></rect><rect x="60" y="23" width="11" height="1"></rect><rect x="92" y="23" width="49" height="1"></rect><rect x="144" y="23" width="5" height="1"></rect><rect x="151" y="23" width="2" height="1"></rect><rect x="0" y="24" width="37" height="1"></rect><rect x="60" y="24" width="11" height="1"></rect><rect x="93" y="24" width="55" height="1"></rect><rect x="151" y="24" width="2" height="1"></rect><rect x="154" y="24" width="1" height="1"></rect><rect x="0" y="25" width="36" height="1"></rect><rect x="61" y="25" width="9" height="1"></rect><rect x="93" y="25" width="51" height="1"></rect><rect x="146" y="25" width="4" height="1"></rect><rect x="152" y="25" width="2" height="1"></rect><rect x="0" y="26" width="35" height="1"></rect><rect x="61" y="26" width="10" height="1"></rect><rect x="92" y="26" width="48" height="1"></rect><rect x="142" y="26" width="3" height="1"></rect><rect x="147" y="26" width="4" height="1"></rect><rect x="153" y="26" width="1" height="1"></rect><rect x="158" y="26" width="1" height="1"></rect><rect x="0" y="27" width="39" height="1"></rect><rect x="61" y="27" width="10" height="1"></rect><rect x="89" y="27" width="51" height="1"></rect><rect x="141" y="27" width="1" height="1"></rect><rect x="143" y="27" width="3" height="1"></rect><rect x="147" y="27" width="3" height="1"></rect><rect x="151" y="27" width="1" height="1"></rect><rect x="0" y="28" width="39" height="1"></rect><rect x="58" y="28" width="13" height="1"></rect><rect x="90" y="28" width="58" height="1"></rect><rect x="149" y="28" width="2" height="1"></rect><rect x="154" y="28" width="2" height="1"></rect><rect x="158" y="28" width="1" height="1"></rect><rect x="0" y="29" width="30" height="1"></rect><rect x="58" y="29" width="15" height="1"></rect><rect x="90" y="29" width="61" height="1"></rect><rect x="154" y="29" width="4" height="1"></rect><rect x="159" y="29" width="1" height="1"></rect><rect x="0" y="30" width="31" height="1"></rect><rect x="39" y="30" width="1" height="1"></rect><rect x="41" y="30" width="1" height="1"></rect><rect x="59" y="30" width="16" height="1"></rect><rect x="91" y="30" width="58" height="1"></rect><rect x="150" y="30" width="4" height="1"></rect><rect x="157" y="30" width="1" height="1"></rect><rect x="0" y="31" width="29" height="1"></rect><rect x="39" y="31" width="1" height="1"></rect><rect x="41" y="31" width="1" height="1"></rect><rect x="60" y="31" width="16" height="1"></rect><rect x="93" y="31" width="57" height="1"></rect><rect x="151" y="31" width="2" height="1"></rect><rect x="154" y="31" width="3" height="1"></rect><rect x="158" y="31" width="1" height="1"></rect><rect x="0" y="32" width="26" height="1"></rect><rect x="37" y="32" width="1" height="1"></rect><rect x="42" y="32" width="1" height="1"></rect><rect x="44" y="32" width="1" height="1"></rect><rect x="62" y="32" width="14" height="1"></rect><rect x="94" y="32" width="57" height="1"></rect><rect x="152" y="32" width="2" height="1"></rect><rect x="156" y="32" width="2" height="1"></rect><rect x="0" y="33" width="24" height="1"></rect><rect x="26" y="33" width="1" height="1"></rect><rect x="37" y="33" width="1" height="1"></rect><rect x="42" y="33" width="3" height="1"></rect><rect x="64" y="33" width="12" height="1"></rect><rect x="95" y="33" width="47" height="1"></rect><rect x="143" y="33" width="1" height="1"></rect><rect x="145" y="33" width="2" height="1"></rect><rect x="148" y="33" width="3" height="1"></rect><rect x="153" y="33" width="1" height="1"></rect><rect x="156" y="33" width="2" height="1"></rect><rect x="0" y="34" width="23" height="1"></rect><rect x="43" y="34" width="1" height="1"></rect><rect x="66" y="34" width="10" height="1"></rect><rect x="97" y="34" width="54" height="1"></rect><rect x="152" y="34" width="1" height="1"></rect><rect x="0" y="35" width="27" height="1"></rect><rect x="30" y="35" width="1" height="1"></rect><rect x="45" y="35" width="2" height="1"></rect><rect x="68" y="35" width="7" height="1"></rect><rect x="97" y="35" width="49" height="1"></rect><rect x="147" y="35" width="3" height="1"></rect><rect x="0" y="36" width="21" height="1"></rect><rect x="23" y="36" width="4" height="1"></rect><rect x="29" y="36" width="2" height="1"></rect><rect x="39" y="36" width="1" height="1"></rect><rect x="43" y="36" width="4" height="1"></rect><rect x="70" y="36" width="4" height="1"></rect><rect x="98" y="36" width="53" height="1"></rect><rect x="153" y="36" width="1" height="1"></rect><rect x="0" y="37" width="21" height="1"></rect><rect x="70" y="37" width="4" height="1"></rect><rect x="99" y="37" width="47" height="1"></rect><rect x="147" y="37" width="2" height="1"></rect><rect x="150" y="37" width="3" height="1"></rect><rect x="159" y="37" width="1" height="1"></rect><rect x="0" y="38" width="22" height="1"></rect><rect x="23" y="38" width="1" height="1"></rect><rect x="32" y="38" width="3" height="1"></rect><rect x="45" y="38" width="4" height="1"></rect><rect x="71" y="38" width="3" height="1"></rect><rect x="99" y="38" width="51" height="1"></rect><rect x="151" y="38" width="1" height="1"></rect><rect x="0" y="39" width="22" height="1"></rect><rect x="23" y="39" width="1" height="1"></rect><rect x="32" y="39" width="4" height="1"></rect><rect x="45" y="39" width="4" height="1"></rect><rect x="71" y="39" width="3" height="1"></rect><rect x="99" y="39" width="49" height="1"></rect><rect x="150" y="39" width="1" height="1"></rect><rect x="152" y="39" width="1" height="1"></rect><rect x="155" y="39" width="1" height="1"></rect><rect x="157" y="39" width="2" height="1"></rect><rect x="0" y="40" width="20" height="1"></rect><rect x="71" y="40" width="2" height="1"></rect><rect x="99" y="40" width="38" height="1"></rect><rect x="138" y="40" width="7" height="1"></rect><rect x="146" y="40" width="1" height="1"></rect><rect x="148" y="40" width="1" height="1"></rect><rect x="150" y="40" width="2" height="1"></rect><rect x="153" y="40" width="3" height="1"></rect><rect x="157" y="40" width="3" height="1"></rect><rect x="0" y="41" width="21" height="1"></rect><rect x="23" y="41" width="3" height="1"></rect><rect x="30" y="41" width="2" height="1"></rect><rect x="46" y="41" width="1" height="1"></rect><rect x="48" y="41" width="2" height="1"></rect><rect x="99" y="41" width="46" height="1"></rect><rect x="146" y="41" width="1" height="1"></rect><rect x="148" y="41" width="1" height="1"></rect><rect x="150" y="41" width="3" height="1"></rect><rect x="154" y="41" width="5" height="1"></rect><rect x="0" y="42" width="21" height="1"></rect><rect x="23" y="42" width="2" height="1"></rect><rect x="27" y="42" width="1" height="1"></rect><rect x="30" y="42" width="2" height="1"></rect><rect x="47" y="42" width="1" height="1"></rect><rect x="49" y="42" width="1" height="1"></rect><rect x="99" y="42" width="49" height="1"></rect><rect x="151" y="42" width="2" height="1"></rect><rect x="154" y="42" width="1" height="1"></rect><rect x="156" y="42" width="4" height="1"></rect><rect x="0" y="43" width="21" height="1"></rect><rect x="33" y="43" width="1" height="1"></rect><rect x="49" y="43" width="1" height="1"></rect><rect x="99" y="43" width="43" height="1"></rect><rect x="143" y="43" width="3" height="1"></rect><rect x="147" y="43" width="2" height="1"></rect><rect x="150" y="43" width="5" height="1"></rect><rect x="157" y="43" width="2" height="1"></rect><rect x="0" y="44" width="22" height="1"></rect><rect x="24" y="44" width="2" height="1"></rect><rect x="30" y="44" width="1" height="1"></rect><rect x="32" y="44" width="2" height="1"></rect><rect x="42" y="44" width="1" height="1"></rect><rect x="47" y="44" width="4" height="1"></rect><rect x="99" y="44" width="50" height="1"></rect><rect x="152" y="44" width="3" height="1"></rect><rect x="157" y="44" width="1" height="1"></rect><rect x="0" y="45" width="23" height="1"></rect><rect x="32" y="45" width="1" height="1"></rect><rect x="99" y="45" width="48" height="1"></rect><rect x="148" y="45" width="1" height="1"></rect><rect x="153" y="45" width="2" height="1"></rect><rect x="157" y="45" width="1" height="1"></rect><rect x="0" y="46" width="25" height="1"></rect><rect x="27" y="46" width="7" height="1"></rect><rect x="35" y="46" width="2" height="1"></rect><rect x="39" y="46" width="2" height="1"></rect><rect x="50" y="46" width="4" height="1"></rect><rect x="98" y="46" width="49" height="1"></rect><rect x="148" y="46" width="1" height="1"></rect><rect x="150" y="46" width="1" height="1"></rect><rect x="155" y="46" width="2" height="1"></rect><rect x="0" y="47" width="36" height="1"></rect><rect x="38" y="47" width="2" height="1"></rect><rect x="50" y="47" width="5" height="1"></rect><rect x="99" y="47" width="43" height="1"></rect><rect x="143" y="47" width="1" height="1"></rect><rect x="145" y="47" width="1" height="1"></rect><rect x="149" y="47" width="1" height="1"></rect><rect x="153" y="47" width="1" height="1"></rect><rect x="0" y="48" width="30" height="1"></rect><rect x="99" y="48" width="40" height="1"></rect><rect x="140" y="48" width="4" height="1"></rect><rect x="146" y="48" width="1" height="1"></rect><rect x="151" y="48" width="2" height="1"></rect><rect x="0" y="49" width="30" height="1"></rect><rect x="54" y="49" width="3" height="1"></rect><rect x="67" y="49" width="1" height="1"></rect><rect x="99" y="49" width="45" height="1"></rect><rect x="146" y="49" width="1" height="1"></rect><rect x="152" y="49" width="1" height="1"></rect><rect x="154" y="49" width="2" height="1"></rect><rect x="157" y="49" width="1" height="1"></rect><rect x="0" y="50" width="36" height="1"></rect><rect x="54" y="50" width="1" height="1"></rect><rect x="56" y="50" width="1" height="1"></rect><rect x="68" y="50" width="1" height="1"></rect><rect x="99" y="50" width="39" height="1"></rect><rect x="139" y="50" width="5" height="1"></rect><rect x="145" y="50" width="2" height="1"></rect><rect x="150" y="50" width="2" height="1"></rect><rect x="156" y="50" width="1" height="1"></rect><rect x="0" y="51" width="36" height="1"></rect><rect x="99" y="51" width="39" height="1"></rect><rect x="139" y="51" width="8" height="1"></rect><rect x="148" y="51" width="1" height="1"></rect><rect x="153" y="51" width="1" height="1"></rect><rect x="157" y="51" width="1" height="1"></rect><rect x="0" y="52" width="37" height="1"></rect><rect x="41" y="52" width="1" height="1"></rect><rect x="48" y="52" width="3" height="1"></rect><rect x="99" y="52" width="38" height="1"></rect><rect x="138" y="52" width="4" height="1"></rect><rect x="143" y="52" width="1" height="1"></rect><rect x="145" y="52" width="3" height="1"></rect><rect x="151" y="52" width="2" height="1"></rect><rect x="154" y="52" width="1" height="1"></rect><rect x="156" y="52" width="2" height="1"></rect><rect x="0" y="53" width="10" height="1"></rect><rect x="12" y="53" width="25" height="1"></rect><rect x="47" y="53" width="1" height="1"></rect><rect x="49" y="53" width="2" height="1"></rect><rect x="74" y="53" width="1" height="1"></rect><rect x="99" y="53" width="37" height="1"></rect><rect x="137" y="53" width="4" height="1"></rect><rect x="142" y="53" width="1" height="1"></rect><rect x="144" y="53" width="4" height="1"></rect><rect x="149" y="53" width="1" height="1"></rect><rect x="151" y="53" width="1" height="1"></rect><rect x="157" y="53" width="1" height="1"></rect><rect x="0" y="54" width="10" height="1"></rect><rect x="12" y="54" width="27" height="1"></rect><rect x="42" y="54" width="1" height="1"></rect><rect x="45" y="54" width="2" height="1"></rect><rect x="48" y="54" width="2" height="1"></rect><rect x="52" y="54" width="2" height="1"></rect><rect x="56" y="54" width="1" height="1"></rect><rect x="99" y="54" width="36" height="1"></rect><rect x="138" y="54" width="2" height="1"></rect><rect x="141" y="54" width="1" height="1"></rect><rect x="144" y="54" width="1" height="1"></rect><rect x="146" y="54" width="1" height="1"></rect><rect x="150" y="54" width="3" height="1"></rect><rect x="0" y="55" width="12" height="1"></rect><rect x="13" y="55" width="26" height="1"></rect><rect x="42" y="55" width="1" height="1"></rect><rect x="45" y="55" width="10" height="1"></rect><rect x="56" y="55" width="1" height="1"></rect><rect x="99" y="55" width="33" height="1"></rect><rect x="133" y="55" width="2" height="1"></rect><rect x="139" y="55" width="10" height="1"></rect><rect x="150" y="55" width="2" height="1"></rect><rect x="0" y="56" width="39" height="1"></rect><rect x="98" y="56" width="34" height="1"></rect><rect x="136" y="56" width="2" height="1"></rect><rect x="142" y="56" width="6" height="1"></rect><rect x="153" y="56" width="2" height="1"></rect><rect x="157" y="56" width="2" height="1"></rect><rect x="0" y="57" width="14" height="1"></rect><rect x="16" y="57" width="21" height="1"></rect><rect x="44" y="57" width="3" height="1"></rect><rect x="48" y="57" width="3" height="1"></rect><rect x="98" y="57" width="37" height="1"></rect><rect x="137" y="57" width="1" height="1"></rect><rect x="140" y="57" width="1" height="1"></rect><rect x="143" y="57" width="2" height="1"></rect><rect x="146" y="57" width="1" height="1"></rect><rect x="150" y="57" width="1" height="1"></rect><rect x="157" y="57" width="2" height="1"></rect><rect x="0" y="58" width="15" height="1"></rect><rect x="17" y="58" width="22" height="1"></rect><rect x="43" y="58" width="8" height="1"></rect><rect x="52" y="58" width="2" height="1"></rect><rect x="98" y="58" width="34" height="1"></rect><rect x="138" y="58" width="4" height="1"></rect><rect x="143" y="58" width="2" height="1"></rect><rect x="146" y="58" width="1" height="1"></rect><rect x="151" y="58" width="1" height="1"></rect><rect x="153" y="58" width="3" height="1"></rect><rect x="157" y="58" width="1" height="1"></rect><rect x="0" y="59" width="37" height="1"></rect><rect x="98" y="59" width="31" height="1"></rect><rect x="130" y="59" width="2" height="1"></rect><rect x="140" y="59" width="1" height="1"></rect><rect x="146" y="59" width="1" height="1"></rect><rect x="152" y="59" width="1" height="1"></rect><rect x="154" y="59" width="2" height="1"></rect><rect x="0" y="60" width="21" height="1"></rect><rect x="22" y="60" width="11" height="1"></rect><rect x="41" y="60" width="6" height="1"></rect><rect x="56" y="60" width="2" height="1"></rect><rect x="60" y="60" width="8" height="1"></rect><rect x="98" y="60" width="26" height="1"></rect><rect x="125" y="60" width="2" height="1"></rect><rect x="130" y="60" width="1" height="1"></rect><rect x="132" y="60" width="1" height="1"></rect><rect x="138" y="60" width="1" height="1"></rect><rect x="143" y="60" width="1" height="1"></rect><rect x="145" y="60" width="1" height="1"></rect><rect x="148" y="60" width="1" height="1"></rect><rect x="152" y="60" width="1" height="1"></rect><rect x="156" y="60" width="1" height="1"></rect><rect x="0" y="61" width="21" height="1"></rect><rect x="24" y="61" width="5" height="1"></rect><rect x="41" y="61" width="6" height="1"></rect><rect x="50" y="61" width="1" height="1"></rect><rect x="56" y="61" width="2" height="1"></rect><rect x="60" y="61" width="9" height="1"></rect><rect x="97" y="61" width="23" height="1"></rect><rect x="121" y="61" width="1" height="1"></rect><rect x="137" y="61" width="1" height="1"></rect><rect x="139" y="61" width="4" height="1"></rect><rect x="0" y="62" width="23" height="1"></rect><rect x="25" y="62" width="3" height="1"></rect><rect x="97" y="62" width="20" height="1"></rect><rect x="118" y="62" width="6" height="1"></rect><rect x="138" y="62" width="3" height="1"></rect><rect x="142" y="62" width="1" height="1"></rect><rect x="145" y="62" width="1" height="1"></rect><rect x="0" y="63" width="23" height="1"></rect><rect x="38" y="63" width="4" height="1"></rect><rect x="53" y="63" width="2" height="1"></rect><rect x="56" y="63" width="4" height="1"></rect><rect x="68" y="63" width="2" height="1"></rect><rect x="71" y="63" width="1" height="1"></rect><rect x="73" y="63" width="4" height="1"></rect><rect x="78" y="63" width="3" height="1"></rect><rect x="82" y="63" width="3" height="1"></rect><rect x="87" y="63" width="2" height="1"></rect><rect x="91" y="63" width="1" height="1"></rect><rect x="93" y="63" width="2" height="1"></rect><rect x="96" y="63" width="28" height="1"></rect><rect x="136" y="63" width="1" height="1"></rect><rect x="138" y="63" width="2" height="1"></rect><rect x="0" y="64" width="24" height="1"></rect><rect x="38" y="64" width="2" height="1"></rect><rect x="41" y="64" width="1" height="1"></rect><rect x="53" y="64" width="2" height="1"></rect><rect x="57" y="64" width="2" height="1"></rect><rect x="65" y="64" width="1" height="1"></rect><rect x="69" y="64" width="1" height="1"></rect><rect x="71" y="64" width="3" height="1"></rect><rect x="76" y="64" width="2" height="1"></rect><rect x="79" y="64" width="2" height="1"></rect><rect x="83" y="64" width="2" height="1"></rect><rect x="88" y="64" width="1" height="1"></rect><rect x="92" y="64" width="1" height="1"></rect><rect x="94" y="64" width="1" height="1"></rect><rect x="96" y="64" width="19" height="1"></rect><rect x="118" y="64" width="5" height="1"></rect><rect x="0" y="65" width="25" height="1"></rect><rect x="52" y="65" width="1" height="1"></rect><rect x="64" y="65" width="1" height="1"></rect><rect x="72" y="65" width="1" height="1"></rect><rect x="78" y="65" width="3" height="1"></rect><rect x="82" y="65" width="1" height="1"></rect><rect x="94" y="65" width="19" height="1"></rect><rect x="115" y="65" width="2" height="1"></rect><rect x="123" y="65" width="3" height="1"></rect><rect x="128" y="65" width="2" height="1"></rect><rect x="131" y="65" width="1" height="1"></rect><rect x="0" y="66" width="26" height="1"></rect><rect x="52" y="66" width="1" height="1"></rect><rect x="64" y="66" width="2" height="1"></rect><rect x="68" y="66" width="1" height="1"></rect><rect x="72" y="66" width="11" height="1"></rect><rect x="94" y="66" width="17" height="1"></rect><rect x="112" y="66" width="6" height="1"></rect><rect x="119" y="66" width="7" height="1"></rect><rect x="128" y="66" width="4" height="1"></rect><rect x="0" y="67" width="26" height="1"></rect><rect x="94" y="67" width="15" height="1"></rect><rect x="125" y="67" width="1" height="1"></rect><rect x="130" y="67" width="1" height="1"></rect><rect x="0" y="68" width="24" height="1"></rect><rect x="44" y="68" width="1" height="1"></rect><rect x="46" y="68" width="1" height="1"></rect><rect x="53" y="68" width="3" height="1"></rect><rect x="76" y="68" width="1" height="1"></rect><rect x="87" y="68" width="1" height="1"></rect><rect x="93" y="68" width="14" height="1"></rect><rect x="124" y="68" width="2" height="1"></rect><rect x="128" y="68" width="2" height="1"></rect><rect x="0" y="69" width="23" height="1"></rect><rect x="43" y="69" width="2" height="1"></rect><rect x="46" y="69" width="1" height="1"></rect><rect x="53" y="69" width="2" height="1"></rect><rect x="68" y="69" width="1" height="1"></rect><rect x="72" y="69" width="1" height="1"></rect><rect x="76" y="69" width="1" height="1"></rect><rect x="82" y="69" width="1" height="1"></rect><rect x="84" y="69" width="1" height="1"></rect><rect x="86" y="69" width="2" height="1"></rect><rect x="93" y="69" width="13" height="1"></rect><rect x="120" y="69" width="1" height="1"></rect><rect x="123" y="69" width="3" height="1"></rect><rect x="128" y="69" width="2" height="1"></rect><rect x="0" y="70" width="23" height="1"></rect><rect x="103" y="70" width="1" height="1"></rect><rect x="0" y="71" width="25" height="1"></rect><rect x="49" y="71" width="3" height="1"></rect><rect x="53" y="71" width="1" height="1"></rect><rect x="71" y="71" width="1" height="1"></rect><rect x="80" y="71" width="1" height="1"></rect><rect x="82" y="71" width="1" height="1"></rect><rect x="105" y="71" width="7" height="1"></rect><rect x="125" y="71" width="11" height="1"></rect><rect x="0" y="72" width="25" height="1"></rect><rect x="49" y="72" width="2" height="1"></rect><rect x="53" y="72" width="1" height="1"></rect><rect x="71" y="72" width="1" height="1"></rect><rect x="81" y="72" width="2" height="1"></rect><rect x="84" y="72" width="1" height="1"></rect><rect x="103" y="72" width="8" height="1"></rect><rect x="125" y="72" width="2" height="1"></rect><rect x="128" y="72" width="8" height="1"></rect><rect x="0" y="73" width="25" height="1"></rect><rect x="108" y="73" width="3" height="1"></rect><rect x="132" y="73" width="1" height="1"></rect><rect x="0" y="74" width="25" height="1"></rect><rect x="37" y="74" width="2" height="1"></rect><rect x="50" y="74" width="1" height="1"></rect><rect x="52" y="74" width="1" height="1"></rect><rect x="64" y="74" width="1" height="1"></rect><rect x="68" y="74" width="1" height="1"></rect><rect x="71" y="74" width="1" height="1"></rect><rect x="76" y="74" width="1" height="1"></rect><rect x="79" y="74" width="2" height="1"></rect><rect x="82" y="74" width="1" height="1"></rect><rect x="86" y="74" width="2" height="1"></rect><rect x="103" y="74" width="1" height="1"></rect><rect x="107" y="74" width="4" height="1"></rect><rect x="129" y="74" width="1" height="1"></rect><rect x="132" y="74" width="1" height="1"></rect><rect x="0" y="75" width="25" height="1"></rect><rect x="38" y="75" width="1" height="1"></rect><rect x="50" y="75" width="1" height="1"></rect><rect x="64" y="75" width="1" height="1"></rect><rect x="68" y="75" width="1" height="1"></rect><rect x="76" y="75" width="1" height="1"></rect><rect x="79" y="75" width="3" height="1"></rect><rect x="87" y="75" width="1" height="1"></rect><rect x="107" y="75" width="1" height="1"></rect><rect x="109" y="75" width="2" height="1"></rect><rect x="132" y="75" width="1" height="1"></rect><rect x="0" y="76" width="24" height="1"></rect><rect x="38" y="76" width="1" height="1"></rect><rect x="52" y="76" width="2" height="1"></rect><rect x="71" y="76" width="1" height="1"></rect><rect x="80" y="76" width="1" height="1"></rect><rect x="82" y="76" width="2" height="1"></rect><rect x="86" y="76" width="2" height="1"></rect><rect x="89" y="76" width="3" height="1"></rect><rect x="110" y="76" width="1" height="1"></rect><rect x="112" y="76" width="1" height="1"></rect><rect x="133" y="76" width="1" height="1"></rect><rect x="135" y="76" width="1" height="1"></rect><rect x="0" y="77" width="23" height="1"></rect><rect x="38" y="77" width="2" height="1"></rect><rect x="41" y="77" width="1" height="1"></rect><rect x="49" y="77" width="2" height="1"></rect><rect x="52" y="77" width="2" height="1"></rect><rect x="71" y="77" width="1" height="1"></rect><rect x="79" y="77" width="10" height="1"></rect><rect x="90" y="77" width="4" height="1"></rect><rect x="110" y="77" width="3" height="1"></rect><rect x="133" y="77" width="3" height="1"></rect><rect x="0" y="78" width="22" height="1"></rect><rect x="110" y="78" width="1" height="1"></rect><rect x="0" y="79" width="22" height="1"></rect><rect x="39" y="79" width="2" height="1"></rect><rect x="45" y="79" width="1" height="1"></rect><rect x="53" y="79" width="1" height="1"></rect><rect x="76" y="79" width="1" height="1"></rect><rect x="80" y="79" width="4" height="1"></rect><rect x="91" y="79" width="1" height="1"></rect><rect x="93" y="79" width="2" height="1"></rect><rect x="109" y="79" width="1" height="1"></rect><rect x="111" y="79" width="3" height="1"></rect><rect x="0" y="80" width="21" height="1"></rect><rect x="39" y="80" width="1" height="1"></rect><rect x="41" y="80" width="1" height="1"></rect><rect x="45" y="80" width="1" height="1"></rect><rect x="52" y="80" width="2" height="1"></rect><rect x="56" y="80" width="1" height="1"></rect><rect x="76" y="80" width="1" height="1"></rect><rect x="79" y="80" width="6" height="1"></rect><rect x="86" y="80" width="2" height="1"></rect><rect x="91" y="80" width="4" height="1"></rect><rect x="109" y="80" width="5" height="1"></rect><rect x="0" y="81" width="21" height="1"></rect><rect x="0" y="82" width="21" height="1"></rect><rect x="42" y="82" width="15" height="1"></rect><rect x="76" y="82" width="3" height="1"></rect><rect x="80" y="82" width="4" height="1"></rect><rect x="94" y="82" width="2" height="1"></rect><rect x="98" y="82" width="1" height="1"></rect><rect x="107" y="82" width="8" height="1"></rect><rect x="0" y="83" width="21" height="1"></rect><rect x="42" y="83" width="2" height="1"></rect><rect x="45" y="83" width="3" height="1"></rect><rect x="49" y="83" width="6" height="1"></rect><rect x="56" y="83" width="2" height="1"></rect><rect x="76" y="83" width="2" height="1"></rect><rect x="80" y="83" width="2" height="1"></rect><rect x="83" y="83" width="1" height="1"></rect><rect x="94" y="83" width="2" height="1"></rect><rect x="98" y="83" width="1" height="1"></rect><rect x="102" y="83" width="1" height="1"></rect><rect x="107" y="83" width="1" height="1"></rect><rect x="109" y="83" width="6" height="1"></rect><rect x="0" y="84" width="14" height="1"></rect><rect x="19" y="84" width="1" height="1"></rect><rect x="112" y="84" width="1" height="1"></rect><rect x="0" y="85" width="12" height="1"></rect><rect x="38" y="85" width="2" height="1"></rect><rect x="41" y="85" width="1" height="1"></rect><rect x="43" y="85" width="4" height="1"></rect><rect x="49" y="85" width="2" height="1"></rect><rect x="52" y="85" width="3" height="1"></rect><rect x="72" y="85" width="2" height="1"></rect><rect x="78" y="85" width="3" height="1"></rect><rect x="82" y="85" width="3" height="1"></rect><rect x="86" y="85" width="1" height="1"></rect><rect x="88" y="85" width="1" height="1"></rect><rect x="90" y="85" width="1" height="1"></rect><rect x="94" y="85" width="1" height="1"></rect><rect x="107" y="85" width="1" height="1"></rect><rect x="109" y="85" width="5" height="1"></rect><rect x="0" y="86" width="11" height="1"></rect><rect x="38" y="86" width="2" height="1"></rect><rect x="41" y="86" width="1" height="1"></rect><rect x="43" y="86" width="1" height="1"></rect><rect x="45" y="86" width="2" height="1"></rect><rect x="53" y="86" width="2" height="1"></rect><rect x="72" y="86" width="2" height="1"></rect><rect x="77" y="86" width="1" height="1"></rect><rect x="79" y="86" width="2" height="1"></rect><rect x="83" y="86" width="1" height="1"></rect><rect x="87" y="86" width="1" height="1"></rect><rect x="94" y="86" width="1" height="1"></rect><rect x="107" y="86" width="1" height="1"></rect><rect x="109" y="86" width="3" height="1"></rect><rect x="113" y="86" width="2" height="1"></rect><rect x="2" y="87" width="2" height="1"></rect><rect x="5" y="87" width="1" height="1"></rect><rect x="34" y="87" width="1" height="1"></rect><rect x="37" y="87" width="2" height="1"></rect><rect x="40" y="87" width="2" height="1"></rect><rect x="44" y="87" width="3" height="1"></rect><rect x="48" y="87" width="2" height="1"></rect><rect x="52" y="87" width="2" height="1"></rect><rect x="56" y="87" width="2" height="1"></rect><rect x="59" y="87" width="3" height="1"></rect><rect x="72" y="87" width="1" height="1"></rect><rect x="75" y="87" width="2" height="1"></rect><rect x="78" y="87" width="3" height="1"></rect><rect x="82" y="87" width="1" height="1"></rect><rect x="94" y="87" width="1" height="1"></rect><rect x="98" y="87" width="1" height="1"></rect><rect x="101" y="87" width="2" height="1"></rect><rect x="105" y="87" width="2" height="1"></rect><rect x="108" y="87" width="3" height="1"></rect><rect x="112" y="87" width="2" height="1"></rect><rect x="34" y="88" width="28" height="1"></rect><rect x="67" y="88" width="3" height="1"></rect><rect x="71" y="88" width="12" height="1"></rect><rect x="84" y="88" width="3" height="1"></rect><rect x="90" y="88" width="1" height="1"></rect><rect x="94" y="88" width="1" height="1"></rect><rect x="98" y="88" width="16" height="1"></rect><rect x="33" y="90" width="5" height="1"></rect><rect x="41" y="90" width="6" height="1"></rect><rect x="57" y="90" width="23" height="1"></rect><rect x="82" y="90" width="1" height="1"></rect><rect x="98" y="90" width="5" height="1"></rect><rect x="107" y="90" width="8" height="1"></rect><rect x="32" y="91" width="15" height="1"></rect><rect x="48" y="91" width="1" height="1"></rect><rect x="57" y="91" width="26" height="1"></rect><rect x="86" y="91" width="2" height="1"></rect><rect x="90" y="91" width="1" height="1"></rect><rect x="98" y="91" width="5" height="1"></rect><rect x="105" y="91" width="10" height="1"></rect><rect x="30" y="93" width="1" height="1"></rect><rect x="35" y="93" width="3" height="1"></rect><rect x="41" y="93" width="1" height="1"></rect><rect x="90" y="93" width="2" height="1"></rect><rect x="105" y="93" width="10" height="1"></rect><rect x="30" y="94" width="1" height="1"></rect><rect x="34" y="94" width="2" height="1"></rect><rect x="37" y="94" width="1" height="1"></rect><rect x="41" y="94" width="1" height="1"></rect><rect x="90" y="94" width="2" height="1"></rect><rect x="102" y="94" width="1" height="1"></rect><rect x="105" y="94" width="3" height="1"></rect><rect x="109" y="94" width="3" height="1"></rect><rect x="113" y="94" width="2" height="1"></rect><rect x="29" y="96" width="3" height="1"></rect><rect x="33" y="96" width="3" height="1"></rect><rect x="37" y="96" width="3" height="1"></rect><rect x="90" y="96" width="4" height="1"></rect><rect x="99" y="96" width="1" height="1"></rect><rect x="101" y="96" width="3" height="1"></rect><rect x="105" y="96" width="1" height="1"></rect><rect x="110" y="96" width="1" height="1"></rect><rect x="112" y="96" width="3" height="1"></rect><rect x="116" y="96" width="3" height="1"></rect><rect x="30" y="97" width="3" height="1"></rect><rect x="34" y="97" width="2" height="1"></rect><rect x="38" y="97" width="1" height="1"></rect><rect x="92" y="97" width="1" height="1"></rect><rect x="94" y="97" width="1" height="1"></rect><rect x="99" y="97" width="1" height="1"></rect><rect x="103" y="97" width="1" height="1"></rect><rect x="111" y="97" width="1" height="1"></rect><rect x="113" y="97" width="3" height="1"></rect><rect x="117" y="97" width="2" height="1"></rect><rect x="37" y="98" width="2" height="1"></rect><rect x="95" y="98" width="1" height="1"></rect><rect x="97" y="98" width="2" height="1"></rect><rect x="101" y="98" width="2" height="1"></rect><rect x="105" y="98" width="2" height="1"></rect><rect x="108" y="98" width="2" height="1"></rect><rect x="31" y="99" width="3" height="1"></rect><rect x="37" y="99" width="4" height="1"></rect><rect x="88" y="99" width="3" height="1"></rect><rect x="95" y="99" width="9" height="1"></rect><rect x="105" y="99" width="6" height="1"></rect><rect x="124" y="99" width="1" height="1"></rect><rect x="34" y="101" width="2" height="1"></rect><rect x="39" y="101" width="3" height="1"></rect><rect x="87" y="101" width="8" height="1"></rect><rect x="116" y="101" width="10" height="1"></rect><rect x="34" y="102" width="2" height="1"></rect><rect x="39" y="102" width="3" height="1"></rect><rect x="86" y="102" width="10" height="1"></rect><rect x="98" y="102" width="1" height="1"></rect><rect x="115" y="102" width="11" height="1"></rect><rect x="35" y="104" width="3" height="1"></rect><rect x="42" y="104" width="1" height="1"></rect><rect x="90" y="104" width="19" height="1"></rect><rect x="124" y="104" width="5" height="1"></rect><rect x="130" y="104" width="3" height="1"></rect><rect x="34" y="105" width="4" height="1"></rect><rect x="42" y="105" width="1" height="1"></rect><rect x="90" y="105" width="3" height="1"></rect><rect x="94" y="105" width="3" height="1"></rect><rect x="98" y="105" width="6" height="1"></rect><rect x="105" y="105" width="3" height="1"></rect><rect x="117" y="105" width="1" height="1"></rect><rect x="124" y="105" width="3" height="1"></rect><rect x="128" y="105" width="1" height="1"></rect><rect x="130" y="105" width="1" height="1"></rect><rect x="132" y="105" width="1" height="1"></rect><rect x="37" y="107" width="3" height="1"></rect><rect x="43" y="107" width="3" height="1"></rect><rect x="95" y="107" width="1" height="1"></rect><rect x="97" y="107" width="3" height="1"></rect><rect x="101" y="107" width="3" height="1"></rect><rect x="105" y="107" width="3" height="1"></rect><rect x="109" y="107" width="2" height="1"></rect><rect x="112" y="107" width="3" height="1"></rect><rect x="116" y="107" width="1" height="1"></rect><rect x="122" y="107" width="1" height="1"></rect><rect x="124" y="107" width="2" height="1"></rect><rect x="128" y="107" width="2" height="1"></rect><rect x="132" y="107" width="1" height="1"></rect><rect x="38" y="108" width="2" height="1"></rect><rect x="43" y="108" width="1" height="1"></rect><rect x="45" y="108" width="1" height="1"></rect><rect x="95" y="108" width="1" height="1"></rect><rect x="98" y="108" width="2" height="1"></rect><rect x="102" y="108" width="2" height="1"></rect><rect x="106" y="108" width="2" height="1"></rect><rect x="109" y="108" width="3" height="1"></rect><rect x="113" y="108" width="3" height="1"></rect><rect x="122" y="108" width="1" height="1"></rect><rect x="124" y="108" width="2" height="1"></rect><rect x="128" y="108" width="1" height="1"></rect><rect x="132" y="108" width="1" height="1"></rect><rect x="46" y="109" width="1" height="1"></rect><rect x="114" y="109" width="1" height="1"></rect><rect x="116" y="109" width="2" height="1"></rect><rect x="120" y="109" width="2" height="1"></rect><rect x="123" y="109" width="3" height="1"></rect><rect x="127" y="109" width="3" height="1"></rect><rect x="132" y="109" width="1" height="1"></rect><rect x="135" y="109" width="1" height="1"></rect><rect x="39" y="110" width="1" height="1"></rect><rect x="46" y="110" width="1" height="1"></rect><rect x="114" y="110" width="16" height="1"></rect><rect x="132" y="110" width="4" height="1"></rect><rect x="129" y="111" width="1" height="1"></rect><rect x="132" y="111" width="1" height="1"></rect><rect x="39" y="112" width="3" height="1"></rect><rect x="44" y="112" width="1" height="1"></rect><rect x="49" y="112" width="4" height="1"></rect><rect x="122" y="112" width="3" height="1"></rect><rect x="126" y="112" width="10" height="1"></rect><rect x="38" y="113" width="4" height="1"></rect><rect x="43" y="113" width="2" height="1"></rect><rect x="49" y="113" width="5" height="1"></rect><rect x="122" y="113" width="15" height="1"></rect><rect x="53" y="115" width="3" height="1"></rect><rect x="121" y="115" width="11" height="1"></rect><rect x="135" y="115" width="2" height="1"></rect><rect x="53" y="116" width="2" height="1"></rect><rect x="121" y="116" width="6" height="1"></rect><rect x="128" y="116" width="4" height="1"></rect><rect x="134" y="116" width="3" height="1"></rect><rect x="127" y="117" width="1" height="1"></rect><rect x="131" y="117" width="2" height="1"></rect><rect x="136" y="117" width="1" height="1"></rect><rect x="44" y="118" width="3" height="1"></rect><rect x="48" y="118" width="3" height="1"></rect><rect x="53" y="118" width="1" height="1"></rect><rect x="121" y="118" width="2" height="1"></rect><rect x="124" y="118" width="4" height="1"></rect><rect x="129" y="118" width="4" height="1"></rect><rect x="135" y="118" width="3" height="1"></rect><rect x="42" y="119" width="1" height="1"></rect><rect x="45" y="119" width="3" height="1"></rect><rect x="49" y="119" width="2" height="1"></rect><rect x="53" y="119" width="1" height="1"></rect><rect x="121" y="119" width="2" height="1"></rect><rect x="125" y="119" width="2" height="1"></rect><rect x="129" y="119" width="2" height="1"></rect><rect x="132" y="119" width="1" height="1"></rect><rect x="136" y="119" width="2" height="1"></rect><rect x="59" y="120" width="2" height="1"></rect><rect x="123" y="120" width="3" height="1"></rect><rect x="127" y="120" width="1" height="1"></rect><rect x="132" y="120" width="1" height="1"></rect><rect x="135" y="120" width="1" height="1"></rect><rect x="52" y="121" width="1" height="1"></rect><rect x="54" y="121" width="1" height="1"></rect><rect x="58" y="121" width="3" height="1"></rect><rect x="122" y="121" width="6" height="1"></rect><rect x="132" y="121" width="4" height="1"></rect><rect x="54" y="123" width="3" height="1"></rect><rect x="124" y="123" width="2" height="1"></rect><rect x="136" y="123" width="4" height="1"></rect><rect x="54" y="124" width="3" height="1"></rect><rect x="122" y="124" width="4" height="1"></rect><rect x="133" y="124" width="1" height="1"></rect><rect x="136" y="124" width="4" height="1"></rect><rect x="121" y="126" width="1" height="1"></rect><rect x="124" y="126" width="2" height="1"></rect><rect x="135" y="126" width="1" height="1"></rect><rect x="121" y="127" width="1" height="1"></rect><rect x="124" y="127" width="2" height="1"></rect><rect x="135" y="127" width="1" height="1"></rect><rect x="140" y="128" width="1" height="1"></rect><rect x="124" y="129" width="1" height="1"></rect><rect x="137" y="129" width="1" height="1"></rect><rect x="139" y="129" width="2" height="1"></rect><rect x="137" y="130" width="1" height="1"></rect><rect x="139" y="130" width="2" height="1"></rect><rect x="128" y="131" width="1" height="1"></rect><rect x="140" y="131" width="1" height="1"></rect><rect x="144" y="131" width="1" height="1"></rect><rect x="124" y="132" width="1" height="1"></rect><rect x="128" y="132" width="1" height="1"></rect><rect x="140" y="132" width="1" height="1"></rect><rect x="143" y="132" width="2" height="1"></rect><rect x="121" y="134" width="3" height="1"></rect><rect x="125" y="134" width="4" height="1"></rect><rect x="139" y="134" width="1" height="1"></rect><rect x="141" y="134" width="3" height="1"></rect><rect x="121" y="135" width="8" height="1"></rect><rect x="138" y="135" width="6" height="1"></rect><rect x="139" y="137" width="1" height="1"></rect><rect x="139" y="138" width="1" height="1"></rect><rect x="140" y="139" width="1" height="1"></rect><rect x="122" y="140" width="1" height="1"></rect><rect x="128" y="140" width="1" height="1"></rect><rect x="140" y="140" width="2" height="1"></rect><rect x="143" y="140" width="2" height="1"></rect><rect x="146" y="140" width="2" height="1"></rect><rect x="122" y="141" width="1" height="1"></rect><rect x="124" y="141" width="1" height="1"></rect><rect x="126" y="141" width="1" height="1"></rect><rect x="128" y="141" width="1" height="1"></rect><rect x="140" y="141" width="2" height="1"></rect><rect x="143" y="141" width="3" height="1"></rect><rect x="147" y="141" width="1" height="1"></rect><rect x="125" y="142" width="1" height="1"></rect><rect x="127" y="142" width="1" height="1"></rect><rect x="125" y="143" width="3" height="1"></rect></svg>