<svg xmlns="http://www.w3.org/2000/svg" viewBox="70 30 450 560" fill="#E0001B" shape-rendering="crispEdges">
<rect x="310" y="40" width="10" height="10"></rect>
<rect x="370" y="50" width="10" height="10"></rect>
<rect x="360" y="60" width="10" height="10"></rect>
<rect x="320" y="70" width="10" height="10"></rect>
<rect x="330" y="70" width="10" height="10"></rect>
<rect x="340" y="70" width="10" height="10"></rect>
<rect x="310" y="80" width="10" height="10"></rect>
<rect x="320" y="80" width="10" height="10"></rect>
<rect x="380" y="80" width="10" height="10"></rect>
<rect x="390" y="80" width="10" height="10"></rect>
<rect x="300" y="90" width="10" height="10"></rect>
<rect x="320" y="90" width="10" height="10"></rect>
<rect x="350" y="90" width="10" height="10"></rect>
<rect x="360" y="90" width="10" height="10"></rect>
<rect x="370" y="90" width="10" height="10"></rect>
<rect x="380" y="90" width="10" height="10"></rect>
<rect x="410" y="90" width="10" height="10"></rect>
<rect x="310" y="100" width="10" height="10"></rect>
<rect x="320" y="100" width="10" height="10"></rect>
<rect x="340" y="100" width="10" height="10"></rect>
<rect x="350" y="100" width="10" height="10"></rect>
<rect x="360" y="100" width="10" height="10"></rect>
<rect x="370" y="100" width="10" height="10"></rect>
<rect x="380" y="100" width="10" height="10"></rect>
<rect x="390" y="100" width="10" height="10"></rect>
<rect x="400" y="100" width="10" height="10"></rect>
<rect x="410" y="100" width="10" height="10"></rect>
<rect x="270" y="110" width="10" height="10"></rect>
<rect x="310" y="110" width="10" height="10"></rect>
<rect x="320" y="110" width="10" height="10"></rect>
<rect x="330" y="110" width="10" height="10"></rect>
<rect x="340" y="110" width="10" height="10"></rect>
<rect x="350" y="110" width="10" height="10"></rect>
<rect x="360" y="110" width="10" height="10"></rect>
<rect x="370" y="110" width="10" height="10"></rect>
<rect x="380" y="110" width="10" height="10"></rect>
<rect x="410" y="110" width="10" height="10"></rect>
<rect x="340" y="120" width="10" height="10"></rect>
<rect x="350" y="120" width="10" height="10"></rect>
<rect x="360" y="120" width="10" height="10"></rect>
<rect x="370" y="120" width="10" height="10"></rect>
<rect x="380" y="120" width="10" height="10"></rect>
<rect x="390" y="120" width="10" height="10"></rect>
<rect x="400" y="120" width="10" height="10"></rect>
<rect x="310" y="130" width="10" height="10"></rect>
<rect x="320" y="130" width="10" height="10"></rect>
<rect x="330" y="130" width="10" height="10"></rect>
<rect x="340" y="130" width="10" height="10"></rect>
<rect x="350" y="130" width="10" height="10"></rect>
<rect x="360" y="130" width="10" height="10"></rect>
<rect x="370" y="130" width="10" height="10"></rect>
<rect x="380" y="130" width="10" height="10"></rect>
<rect x="400" y="130" width="10" height="10"></rect>
<rect x="410" y="130" width="10" height="10"></rect>
<rect x="430" y="130" width="10" height="10"></rect>
<rect x="230" y="140" width="10" height="10"></rect>
<rect x="280" y="140" width="10" height="10"></rect>
<rect x="290" y="140" width="10" height="10"></rect>
<rect x="300" y="140" width="10" height="10"></rect>
<rect x="310" y="140" width="10" height="10"></rect>
<rect x="320" y="140" width="10" height="10"></rect>
<rect x="330" y="140" width="10" height="10"></rect>
<rect x="340" y="140" width="10" height="10"></rect>
<rect x="350" y="140" width="10" height="10"></rect>
<rect x="360" y="140" width="10" height="10"></rect>
<rect x="370" y="140" width="10" height="10"></rect>
<rect x="380" y="140" width="10" height="10"></rect>
<rect x="390" y="140" width="10" height="10"></rect>
<rect x="400" y="140" width="10" height="10"></rect>
<rect x="410" y="140" width="10" height="10"></rect>
<rect x="420" y="140" width="10" height="10"></rect>
<rect x="430" y="140" width="10" height="10"></rect>
<rect x="250" y="150" width="10" height="10"></rect>
<rect x="290" y="150" width="10" height="10"></rect>
<rect x="300" y="150" width="10" height="10"></rect>
<rect x="310" y="150" width="10" height="10"></rect>
<rect x="320" y="150" width="10" height="10"></rect>
<rect x="330" y="150" width="10" height="10"></rect>
<rect x="340" y="150" width="10" height="10"></rect>
<rect x="350" y="150" width="10" height="10"></rect>
<rect x="360" y="150" width="10" height="10"></rect>
<rect x="370" y="150" width="10" height="10"></rect>
<rect x="380" y="150" width="10" height="10"></rect>
<rect x="390" y="150" width="10" height="10"></rect>
<rect x="400" y="150" width="10" height="10"></rect>
<rect x="410" y="150" width="10" height="10"></rect>
<rect x="420" y="150" width="10" height="10"></rect>
<rect x="430" y="150" width="10" height="10"></rect>
<rect x="220" y="160" width="10" height="10"></rect>
<rect x="290" y="160" width="10" height="10"></rect>
<rect x="300" y="160" width="10" height="10"></rect>
<rect x="310" y="160" width="10" height="10"></rect>
<rect x="320" y="160" width="10" height="10"></rect>
<rect x="330" y="160" width="10" height="10"></rect>
<rect x="340" y="160" width="10" height="10"></rect>
<rect x="350" y="160" width="10" height="10"></rect>
<rect x="360" y="160" width="10" height="10"></rect>
<rect x="370" y="160" width="10" height="10"></rect>
<rect x="380" y="160" width="10" height="10"></rect>
<rect x="390" y="160" width="10" height="10"></rect>
<rect x="400" y="160" width="10" height="10"></rect>
<rect x="410" y="160" width="10" height="10"></rect>
<rect x="420" y="160" width="10" height="10"></rect>
<rect x="430" y="160" width="10" height="10"></rect>
<rect x="440" y="160" width="10" height="10"></rect>
<rect x="260" y="170" width="10" height="10"></rect>
<rect x="280" y="170" width="10" height="10"></rect>
<rect x="290" y="170" width="10" height="10"></rect>
<rect x="300" y="170" width="10" height="10"></rect>
<rect x="310" y="170" width="10" height="10"></rect>
<rect x="320" y="170" width="10" height="10"></rect>
<rect x="330" y="170" width="10" height="10"></rect>
<rect x="350" y="170" width="10" height="10"></rect>
<rect x="360" y="170" width="10" height="10"></rect>
<rect x="370" y="170" width="10" height="10"></rect>
<rect x="410" y="170" width="10" height="10"></rect>
<rect x="200" y="180" width="10" height="10"></rect>
<rect x="230" y="180" width="10" height="10"></rect>
<rect x="250" y="180" width="10" height="10"></rect>
<rect x="270" y="180" width="10" height="10"></rect>
<rect x="290" y="180" width="10" height="10"></rect>
<rect x="300" y="180" width="10" height="10"></rect>
<rect x="310" y="180" width="10" height="10"></rect>
<rect x="320" y="180" width="10" height="10"></rect>
<rect x="330" y="180" width="10" height="10"></rect>
<rect x="340" y="180" width="10" height="10"></rect>
<rect x="350" y="180" width="10" height="10"></rect>
<rect x="360" y="180" width="10" height="10"></rect>
<rect x="370" y="180" width="10" height="10"></rect>
<rect x="380" y="180" width="10" height="10"></rect>
<rect x="430" y="180" width="10" height="10"></rect>
<rect x="440" y="180" width="10" height="10"></rect>
<rect x="240" y="190" width="10" height="10"></rect>
<rect x="280" y="190" width="10" height="10"></rect>
<rect x="290" y="190" width="10" height="10"></rect>
<rect x="300" y="190" width="10" height="10"></rect>
<rect x="310" y="190" width="10" height="10"></rect>
<rect x="320" y="190" width="10" height="10"></rect>
<rect x="330" y="190" width="10" height="10"></rect>
<rect x="340" y="190" width="10" height="10"></rect>
<rect x="350" y="190" width="10" height="10"></rect>
<rect x="360" y="190" width="10" height="10"></rect>
<rect x="370" y="190" width="10" height="10"></rect>
<rect x="420" y="190" width="10" height="10"></rect>
<rect x="210" y="200" width="10" height="10"></rect>
<rect x="230" y="200" width="10" height="10"></rect>
<rect x="260" y="200" width="10" height="10"></rect>
<rect x="270" y="200" width="10" height="10"></rect>
<rect x="280" y="200" width="10" height="10"></rect>
<rect x="290" y="200" width="10" height="10"></rect>
<rect x="300" y="200" width="10" height="10"></rect>
<rect x="310" y="200" width="10" height="10"></rect>
<rect x="350" y="200" width="10" height="10"></rect>
<rect x="360" y="200" width="10" height="10"></rect>
<rect x="210" y="210" width="10" height="10"></rect>
<rect x="230" y="210" width="10" height="10"></rect>
<rect x="260" y="210" width="10" height="10"></rect>
<rect x="280" y="210" width="10" height="10"></rect>
<rect x="290" y="210" width="10" height="10"></rect>
<rect x="300" y="210" width="10" height="10"></rect>
<rect x="310" y="210" width="10" height="10"></rect>
<rect x="330" y="210" width="10" height="10"></rect>
<rect x="350" y="210" width="10" height="10"></rect>
<rect x="360" y="210" width="10" height="10"></rect>
<rect x="370" y="210" width="10" height="10"></rect>
<rect x="270" y="220" width="10" height="10"></rect>
<rect x="280" y="220" width="10" height="10"></rect>
<rect x="290" y="220" width="10" height="10"></rect>
<rect x="300" y="220" width="10" height="10"></rect>
<rect x="310" y="220" width="10" height="10"></rect>
<rect x="320" y="220" width="10" height="10"></rect>
<rect x="330" y="220" width="10" height="10"></rect>
<rect x="340" y="220" width="10" height="10"></rect>
<rect x="350" y="220" width="10" height="10"></rect>
<rect x="360" y="220" width="10" height="10"></rect>
<rect x="370" y="220" width="10" height="10"></rect>
<rect x="380" y="220" width="10" height="10"></rect>
<rect x="390" y="220" width="10" height="10"></rect>
<rect x="400" y="220" width="10" height="10"></rect>
<rect x="160" y="230" width="10" height="10"></rect>
<rect x="220" y="230" width="10" height="10"></rect>
<rect x="250" y="230" width="10" height="10"></rect>
<rect x="260" y="230" width="10" height="10"></rect>
<rect x="280" y="230" width="10" height="10"></rect>
<rect x="300" y="230" width="10" height="10"></rect>
<rect x="310" y="230" width="10" height="10"></rect>
<rect x="320" y="230" width="10" height="10"></rect>
<rect x="330" y="230" width="10" height="10"></rect>
<rect x="340" y="230" width="10" height="10"></rect>
<rect x="360" y="230" width="10" height="10"></rect>
<rect x="370" y="230" width="10" height="10"></rect>
<rect x="380" y="230" width="10" height="10"></rect>
<rect x="140" y="240" width="10" height="10"></rect>
<rect x="190" y="240" width="10" height="10"></rect>
<rect x="230" y="240" width="10" height="10"></rect>
<rect x="240" y="240" width="10" height="10"></rect>
<rect x="250" y="240" width="10" height="10"></rect>
<rect x="260" y="240" width="10" height="10"></rect>
<rect x="270" y="240" width="10" height="10"></rect>
<rect x="280" y="240" width="10" height="10"></rect>
<rect x="290" y="240" width="10" height="10"></rect>
<rect x="300" y="240" width="10" height="10"></rect>
<rect x="310" y="240" width="10" height="10"></rect>
<rect x="320" y="240" width="10" height="10"></rect>
<rect x="330" y="240" width="10" height="10"></rect>
<rect x="390" y="240" width="10" height="10"></rect>
<rect x="200" y="250" width="10" height="10"></rect>
<rect x="220" y="250" width="10" height="10"></rect>
<rect x="270" y="250" width="10" height="10"></rect>
<rect x="280" y="250" width="10" height="10"></rect>
<rect x="300" y="250" width="10" height="10"></rect>
<rect x="310" y="250" width="10" height="10"></rect>
<rect x="320" y="250" width="10" height="10"></rect>
<rect x="330" y="250" width="10" height="10"></rect>
<rect x="340" y="250" width="10" height="10"></rect>
<rect x="350" y="250" width="10" height="10"></rect>
<rect x="360" y="250" width="10" height="10"></rect>
<rect x="150" y="260" width="10" height="10"></rect>
<rect x="200" y="260" width="10" height="10"></rect>
<rect x="210" y="260" width="10" height="10"></rect>
<rect x="220" y="260" width="10" height="10"></rect>
<rect x="230" y="260" width="10" height="10"></rect>
<rect x="240" y="260" width="10" height="10"></rect>
<rect x="270" y="260" width="10" height="10"></rect>
<rect x="280" y="260" width="10" height="10"></rect>
<rect x="290" y="260" width="10" height="10"></rect>
<rect x="300" y="260" width="10" height="10"></rect>
<rect x="310" y="260" width="10" height="10"></rect>
<rect x="320" y="260" width="10" height="10"></rect>
<rect x="330" y="260" width="10" height="10"></rect>
<rect x="340" y="260" width="10" height="10"></rect>
<rect x="350" y="260" width="10" height="10"></rect>
<rect x="360" y="260" width="10" height="10"></rect>
<rect x="370" y="260" width="10" height="10"></rect>
<rect x="380" y="260" width="10" height="10"></rect>
<rect x="390" y="260" width="10" height="10"></rect>
<rect x="80" y="270" width="10" height="10"></rect>
<rect x="160" y="270" width="10" height="10"></rect>
<rect x="170" y="270" width="10" height="10"></rect>
<rect x="190" y="270" width="10" height="10"></rect>
<rect x="200" y="270" width="10" height="10"></rect>
<rect x="210" y="270" width="10" height="10"></rect>
<rect x="220" y="270" width="10" height="10"></rect>
<rect x="230" y="270" width="10" height="10"></rect>
<rect x="240" y="270" width="10" height="10"></rect>
<rect x="280" y="270" width="10" height="10"></rect>
<rect x="290" y="270" width="10" height="10"></rect>
<rect x="300" y="270" width="10" height="10"></rect>
<rect x="310" y="270" width="10" height="10"></rect>
<rect x="320" y="270" width="10" height="10"></rect>
<rect x="330" y="270" width="10" height="10"></rect>
<rect x="340" y="270" width="10" height="10"></rect>
<rect x="350" y="270" width="10" height="10"></rect>
<rect x="360" y="270" width="10" height="10"></rect>
<rect x="370" y="270" width="10" height="10"></rect>
<rect x="380" y="270" width="10" height="10"></rect>
<rect x="390" y="270" width="10" height="10"></rect>
<rect x="400" y="270" width="10" height="10"></rect>
<rect x="410" y="270" width="10" height="10"></rect>
<rect x="430" y="270" width="10" height="10"></rect>
<rect x="440" y="270" width="10" height="10"></rect>
<rect x="450" y="270" width="10" height="10"></rect>
<rect x="460" y="270" width="10" height="10"></rect>
<rect x="140" y="280" width="10" height="10"></rect>
<rect x="160" y="280" width="10" height="10"></rect>
<rect x="170" y="280" width="10" height="10"></rect>
<rect x="200" y="280" width="10" height="10"></rect>
<rect x="210" y="280" width="10" height="10"></rect>
<rect x="220" y="280" width="10" height="10"></rect>
<rect x="240" y="280" width="10" height="10"></rect>
<rect x="250" y="280" width="10" height="10"></rect>
<rect x="260" y="280" width="10" height="10"></rect>
<rect x="270" y="280" width="10" height="10"></rect>
<rect x="280" y="280" width="10" height="10"></rect>
<rect x="290" y="280" width="10" height="10"></rect>
<rect x="300" y="280" width="10" height="10"></rect>
<rect x="310" y="280" width="10" height="10"></rect>
<rect x="320" y="280" width="10" height="10"></rect>
<rect x="330" y="280" width="10" height="10"></rect>
<rect x="340" y="280" width="10" height="10"></rect>
<rect x="350" y="280" width="10" height="10"></rect>
<rect x="360" y="280" width="10" height="10"></rect>
<rect x="370" y="280" width="10" height="10"></rect>
<rect x="380" y="280" width="10" height="10"></rect>
<rect x="390" y="280" width="10" height="10"></rect>
<rect x="400" y="280" width="10" height="10"></rect>
<rect x="420" y="280" width="10" height="10"></rect>
<rect x="430" y="280" width="10" height="10"></rect>
<rect x="460" y="280" width="10" height="10"></rect>
<rect x="130" y="290" width="10" height="10"></rect>
<rect x="140" y="290" width="10" height="10"></rect>
<rect x="150" y="290" width="10" height="10"></rect>
<rect x="170" y="290" width="10" height="10"></rect>
<rect x="190" y="290" width="10" height="10"></rect>
<rect x="200" y="290" width="10" height="10"></rect>
<rect x="210" y="290" width="10" height="10"></rect>
<rect x="220" y="290" width="10" height="10"></rect>
<rect x="230" y="290" width="10" height="10"></rect>
<rect x="250" y="290" width="10" height="10"></rect>
<rect x="260" y="290" width="10" height="10"></rect>
<rect x="270" y="290" width="10" height="10"></rect>
<rect x="280" y="290" width="10" height="10"></rect>
<rect x="290" y="290" width="10" height="10"></rect>
<rect x="300" y="290" width="10" height="10"></rect>
<rect x="320" y="290" width="10" height="10"></rect>
<rect x="330" y="290" width="10" height="10"></rect>
<rect x="340" y="290" width="10" height="10"></rect>
<rect x="350" y="290" width="10" height="10"></rect>
<rect x="360" y="290" width="10" height="10"></rect>
<rect x="370" y="290" width="10" height="10"></rect>
<rect x="380" y="290" width="10" height="10"></rect>
<rect x="390" y="290" width="10" height="10"></rect>
<rect x="400" y="290" width="10" height="10"></rect>
<rect x="410" y="290" width="10" height="10"></rect>
<rect x="420" y="290" width="10" height="10"></rect>
<rect x="430" y="290" width="10" height="10"></rect>
<rect x="440" y="290" width="10" height="10"></rect>
<rect x="460" y="290" width="10" height="10"></rect>
<rect x="470" y="290" width="10" height="10"></rect>
<rect x="200" y="300" width="10" height="10"></rect>
<rect x="210" y="300" width="10" height="10"></rect>
<rect x="230" y="300" width="10" height="10"></rect>
<rect x="240" y="300" width="10" height="10"></rect>
<rect x="250" y="300" width="10" height="10"></rect>
<rect x="260" y="300" width="10" height="10"></rect>
<rect x="270" y="300" width="10" height="10"></rect>
<rect x="280" y="300" width="10" height="10"></rect>
<rect x="290" y="300" width="10" height="10"></rect>
<rect x="300" y="300" width="10" height="10"></rect>
<rect x="310" y="300" width="10" height="10"></rect>
<rect x="320" y="300" width="10" height="10"></rect>
<rect x="330" y="300" width="10" height="10"></rect>
<rect x="340" y="300" width="10" height="10"></rect>
<rect x="350" y="300" width="10" height="10"></rect>
<rect x="360" y="300" width="10" height="10"></rect>
<rect x="370" y="300" width="10" height="10"></rect>
<rect x="380" y="300" width="10" height="10"></rect>
<rect x="390" y="300" width="10" height="10"></rect>
<rect x="400" y="300" width="10" height="10"></rect>
<rect x="410" y="300" width="10" height="10"></rect>
<rect x="420" y="300" width="10" height="10"></rect>
<rect x="430" y="300" width="10" height="10"></rect>
<rect x="440" y="300" width="10" height="10"></rect>
<rect x="450" y="300" width="10" height="10"></rect>
<rect x="460" y="300" width="10" height="10"></rect>
<rect x="470" y="300" width="10" height="10"></rect>
<rect x="100" y="310" width="10" height="10"></rect>
<rect x="110" y="310" width="10" height="10"></rect>
<rect x="130" y="310" width="10" height="10"></rect>
<rect x="140" y="310" width="10" height="10"></rect>
<rect x="160" y="310" width="10" height="10"></rect>
<rect x="170" y="310" width="10" height="10"></rect>
<rect x="180" y="310" width="10" height="10"></rect>
<rect x="190" y="310" width="10" height="10"></rect>
<rect x="200" y="310" width="10" height="10"></rect>
<rect x="210" y="310" width="10" height="10"></rect>
<rect x="220" y="310" width="10" height="10"></rect>
<rect x="230" y="310" width="10" height="10"></rect>
<rect x="240" y="310" width="10" height="10"></rect>
<rect x="250" y="310" width="10" height="10"></rect>
<rect x="260" y="310" width="10" height="10"></rect>
<rect x="270" y="310" width="10" height="10"></rect>
<rect x="280" y="310" width="10" height="10"></rect>
<rect x="290" y="310" width="10" height="10"></rect>
<rect x="300" y="310" width="10" height="10"></rect>
<rect x="310" y="310" width="10" height="10"></rect>
<rect x="320" y="310" width="10" height="10"></rect>
<rect x="340" y="310" width="10" height="10"></rect>
<rect x="350" y="310" width="10" height="10"></rect>
<rect x="360" y="310" width="10" height="10"></rect>
<rect x="370" y="310" width="10" height="10"></rect>
<rect x="380" y="310" width="10" height="10"></rect>
<rect x="390" y="310" width="10" height="10"></rect>
<rect x="400" y="310" width="10" height="10"></rect>
<rect x="410" y="310" width="10" height="10"></rect>
<rect x="420" y="310" width="10" height="10"></rect>
<rect x="430" y="310" width="10" height="10"></rect>
<rect x="440" y="310" width="10" height="10"></rect>
<rect x="450" y="310" width="10" height="10"></rect>
<rect x="460" y="310" width="10" height="10"></rect>
<rect x="470" y="310" width="10" height="10"></rect>
<rect x="480" y="310" width="10" height="10"></rect>
<rect x="490" y="310" width="10" height="10"></rect>
<rect x="500" y="310" width="10" height="10"></rect>
<rect x="80" y="320" width="10" height="10"></rect>
<rect x="100" y="320" width="10" height="10"></rect>
<rect x="110" y="320" width="10" height="10"></rect>
<rect x="120" y="320" width="10" height="10"></rect>
<rect x="150" y="320" width="10" height="10"></rect>
<rect x="160" y="320" width="10" height="10"></rect>
<rect x="170" y="320" width="10" height="10"></rect>
<rect x="180" y="320" width="10" height="10"></rect>
<rect x="190" y="320" width="10" height="10"></rect>
<rect x="200" y="320" width="10" height="10"></rect>
<rect x="220" y="320" width="10" height="10"></rect>
<rect x="230" y="320" width="10" height="10"></rect>
<rect x="240" y="320" width="10" height="10"></rect>
<rect x="250" y="320" width="10" height="10"></rect>
<rect x="260" y="320" width="10" height="10"></rect>
<rect x="270" y="320" width="10" height="10"></rect>
<rect x="280" y="320" width="10" height="10"></rect>
<rect x="290" y="320" width="10" height="10"></rect>
<rect x="300" y="320" width="10" height="10"></rect>
<rect x="310" y="320" width="10" height="10"></rect>
<rect x="320" y="320" width="10" height="10"></rect>
<rect x="330" y="320" width="10" height="10"></rect>
<rect x="340" y="320" width="10" height="10"></rect>
<rect x="350" y="320" width="10" height="10"></rect>
<rect x="360" y="320" width="10" height="10"></rect>
<rect x="410" y="320" width="10" height="10"></rect>
<rect x="450" y="320" width="10" height="10"></rect>
<rect x="470" y="320" width="10" height="10"></rect>
<rect x="480" y="320" width="10" height="10"></rect>
<rect x="490" y="320" width="10" height="10"></rect>
<rect x="500" y="320" width="10" height="10"></rect>
<rect x="80" y="330" width="10" height="10"></rect>
<rect x="100" y="330" width="10" height="10"></rect>
<rect x="110" y="330" width="10" height="10"></rect>
<rect x="120" y="330" width="10" height="10"></rect>
<rect x="130" y="330" width="10" height="10"></rect>
<rect x="150" y="330" width="10" height="10"></rect>
<rect x="160" y="330" width="10" height="10"></rect>
<rect x="170" y="330" width="10" height="10"></rect>
<rect x="180" y="330" width="10" height="10"></rect>
<rect x="190" y="330" width="10" height="10"></rect>
<rect x="200" y="330" width="10" height="10"></rect>
<rect x="210" y="330" width="10" height="10"></rect>
<rect x="220" y="330" width="10" height="10"></rect>
<rect x="230" y="330" width="10" height="10"></rect>
<rect x="240" y="330" width="10" height="10"></rect>
<rect x="250" y="330" width="10" height="10"></rect>
<rect x="260" y="330" width="10" height="10"></rect>
<rect x="270" y="330" width="10" height="10"></rect>
<rect x="280" y="330" width="10" height="10"></rect>
<rect x="290" y="330" width="10" height="10"></rect>
<rect x="300" y="330" width="10" height="10"></rect>
<rect x="310" y="330" width="10" height="10"></rect>
<rect x="320" y="330" width="10" height="10"></rect>
<rect x="330" y="330" width="10" height="10"></rect>
<rect x="340" y="330" width="10" height="10"></rect>
<rect x="350" y="330" width="10" height="10"></rect>
<rect x="360" y="330" width="10" height="10"></rect>
<rect x="440" y="330" width="10" height="10"></rect>
<rect x="480" y="330" width="10" height="10"></rect>
<rect x="90" y="340" width="10" height="10"></rect>
<rect x="120" y="340" width="10" height="10"></rect>
<rect x="130" y="340" width="10" height="10"></rect>
<rect x="140" y="340" width="10" height="10"></rect>
<rect x="150" y="340" width="10" height="10"></rect>
<rect x="160" y="340" width="10" height="10"></rect>
<rect x="170" y="340" width="10" height="10"></rect>
<rect x="180" y="340" width="10" height="10"></rect>
<rect x="190" y="340" width="10" height="10"></rect>
<rect x="200" y="340" width="10" height="10"></rect>
<rect x="210" y="340" width="10" height="10"></rect>
<rect x="220" y="340" width="10" height="10"></rect>
<rect x="230" y="340" width="10" height="10"></rect>
<rect x="240" y="340" width="10" height="10"></rect>
<rect x="250" y="340" width="10" height="10"></rect>
<rect x="260" y="340" width="10" height="10"></rect>
<rect x="270" y="340" width="10" height="10"></rect>
<rect x="280" y="340" width="10" height="10"></rect>
<rect x="290" y="340" width="10" height="10"></rect>
<rect x="300" y="340" width="10" height="10"></rect>
<rect x="310" y="340" width="10" height="10"></rect>
<rect x="320" y="340" width="10" height="10"></rect>
<rect x="340" y="340" width="10" height="10"></rect>
<rect x="460" y="340" width="10" height="10"></rect>
<rect x="470" y="340" width="10" height="10"></rect>
<rect x="480" y="340" width="10" height="10"></rect>
<rect x="490" y="340" width="10" height="10"></rect>
<rect x="500" y="340" width="10" height="10"></rect>
<rect x="110" y="350" width="10" height="10"></rect>
<rect x="120" y="350" width="10" height="10"></rect>
<rect x="130" y="350" width="10" height="10"></rect>
<rect x="140" y="350" width="10" height="10"></rect>
<rect x="150" y="350" width="10" height="10"></rect>
<rect x="160" y="350" width="10" height="10"></rect>
<rect x="170" y="350" width="10" height="10"></rect>
<rect x="180" y="350" width="10" height="10"></rect>
<rect x="190" y="350" width="10" height="10"></rect>
<rect x="200" y="350" width="10" height="10"></rect>
<rect x="210" y="350" width="10" height="10"></rect>
<rect x="220" y="350" width="10" height="10"></rect>
<rect x="230" y="350" width="10" height="10"></rect>
<rect x="240" y="350" width="10" height="10"></rect>
<rect x="250" y="350" width="10" height="10"></rect>
<rect x="260" y="350" width="10" height="10"></rect>
<rect x="270" y="350" width="10" height="10"></rect>
<rect x="280" y="350" width="10" height="10"></rect>
<rect x="290" y="350" width="10" height="10"></rect>
<rect x="300" y="350" width="10" height="10"></rect>
<rect x="310" y="350" width="10" height="10"></rect>
<rect x="320" y="350" width="10" height="10"></rect>
<rect x="330" y="350" width="10" height="10"></rect>
<rect x="340" y="350" width="10" height="10"></rect>
<rect x="450" y="350" width="10" height="10"></rect>
<rect x="460" y="350" width="10" height="10"></rect>
<rect x="470" y="350" width="10" height="10"></rect>
<rect x="480" y="350" width="10" height="10"></rect>
<rect x="110" y="360" width="10" height="10"></rect>
<rect x="120" y="360" width="10" height="10"></rect>
<rect x="130" y="360" width="10" height="10"></rect>
<rect x="140" y="360" width="10" height="10"></rect>
<rect x="150" y="360" width="10" height="10"></rect>
<rect x="160" y="360" width="10" height="10"></rect>
<rect x="170" y="360" width="10" height="10"></rect>
<rect x="180" y="360" width="10" height="10"></rect>
<rect x="190" y="360" width="10" height="10"></rect>
<rect x="200" y="360" width="10" height="10"></rect>
<rect x="210" y="360" width="10" height="10"></rect>
<rect x="240" y="360" width="10" height="10"></rect>
<rect x="260" y="360" width="10" height="10"></rect>
<rect x="270" y="360" width="10" height="10"></rect>
<rect x="310" y="360" width="10" height="10"></rect>
<rect x="440" y="360" width="10" height="10"></rect>
<rect x="450" y="360" width="10" height="10"></rect>
<rect x="460" y="360" width="10" height="10"></rect>
<rect x="470" y="360" width="10" height="10"></rect>
<rect x="480" y="360" width="10" height="10"></rect>
<rect x="110" y="370" width="10" height="10"></rect>
<rect x="120" y="370" width="10" height="10"></rect>
<rect x="130" y="370" width="10" height="10"></rect>
<rect x="140" y="370" width="10" height="10"></rect>
<rect x="150" y="370" width="10" height="10"></rect>
<rect x="160" y="370" width="10" height="10"></rect>
<rect x="170" y="370" width="10" height="10"></rect>
<rect x="180" y="370" width="10" height="10"></rect>
<rect x="190" y="370" width="10" height="10"></rect>
<rect x="200" y="370" width="10" height="10"></rect>
<rect x="210" y="370" width="10" height="10"></rect>
<rect x="220" y="370" width="10" height="10"></rect>
<rect x="240" y="370" width="10" height="10"></rect>
<rect x="250" y="370" width="10" height="10"></rect>
<rect x="280" y="370" width="10" height="10"></rect>
<rect x="430" y="370" width="10" height="10"></rect>
<rect x="440" y="370" width="10" height="10"></rect>
<rect x="450" y="370" width="10" height="10"></rect>
<rect x="460" y="370" width="10" height="10"></rect>
<rect x="470" y="370" width="10" height="10"></rect>
<rect x="490" y="370" width="10" height="10"></rect>
<rect x="120" y="380" width="10" height="10"></rect>
<rect x="130" y="380" width="10" height="10"></rect>
<rect x="140" y="380" width="10" height="10"></rect>
<rect x="190" y="380" width="10" height="10"></rect>
<rect x="200" y="380" width="10" height="10"></rect>
<rect x="210" y="380" width="10" height="10"></rect>
<rect x="240" y="380" width="10" height="10"></rect>
<rect x="250" y="380" width="10" height="10"></rect>
<rect x="260" y="380" width="10" height="10"></rect>
<rect x="440" y="380" width="10" height="10"></rect>
<rect x="450" y="380" width="10" height="10"></rect>
<rect x="80" y="390" width="10" height="10"></rect>
<rect x="110" y="390" width="10" height="10"></rect>
<rect x="120" y="390" width="10" height="10"></rect>
<rect x="130" y="390" width="10" height="10"></rect>
<rect x="140" y="390" width="10" height="10"></rect>
<rect x="150" y="390" width="10" height="10"></rect>
<rect x="180" y="390" width="10" height="10"></rect>
<rect x="190" y="390" width="10" height="10"></rect>
<rect x="200" y="390" width="10" height="10"></rect>
<rect x="210" y="390" width="10" height="10"></rect>
<rect x="220" y="390" width="10" height="10"></rect>
<rect x="230" y="390" width="10" height="10"></rect>
<rect x="450" y="390" width="10" height="10"></rect>
<rect x="100" y="400" width="10" height="10"></rect>
<rect x="110" y="400" width="10" height="10"></rect>
<rect x="120" y="400" width="10" height="10"></rect>
<rect x="140" y="400" width="10" height="10"></rect>
<rect x="150" y="400" width="10" height="10"></rect>
<rect x="160" y="400" width="10" height="10"></rect>
<rect x="190" y="400" width="10" height="10"></rect>
<rect x="210" y="400" width="10" height="10"></rect>
<rect x="220" y="400" width="10" height="10"></rect>
<rect x="230" y="400" width="10" height="10"></rect>
<rect x="240" y="400" width="10" height="10"></rect>
<rect x="110" y="410" width="10" height="10"></rect>
<rect x="120" y="410" width="10" height="10"></rect>
<rect x="130" y="410" width="10" height="10"></rect>
<rect x="140" y="410" width="10" height="10"></rect>
<rect x="150" y="410" width="10" height="10"></rect>
<rect x="190" y="410" width="10" height="10"></rect>
<rect x="200" y="410" width="10" height="10"></rect>
<rect x="210" y="410" width="10" height="10"></rect>
<rect x="220" y="410" width="10" height="10"></rect>
<rect x="230" y="410" width="10" height="10"></rect>
<rect x="240" y="410" width="10" height="10"></rect>
<rect x="100" y="420" width="10" height="10"></rect>
<rect x="110" y="420" width="10" height="10"></rect>
<rect x="120" y="420" width="10" height="10"></rect>
<rect x="130" y="420" width="10" height="10"></rect>
<rect x="140" y="420" width="10" height="10"></rect>
<rect x="190" y="420" width="10" height="10"></rect>
<rect x="200" y="420" width="10" height="10"></rect>
<rect x="210" y="420" width="10" height="10"></rect>
<rect x="220" y="420" width="10" height="10"></rect>
<rect x="230" y="420" width="10" height="10"></rect>
<rect x="240" y="420" width="10" height="10"></rect>
<rect x="190" y="430" width="10" height="10"></rect>
<rect x="200" y="430" width="10" height="10"></rect>
<rect x="210" y="430" width="10" height="10"></rect>
<rect x="220" y="430" width="10" height="10"></rect>
<rect x="240" y="430" width="10" height="10"></rect>
<rect x="130" y="440" width="10" height="10"></rect>
<rect x="140" y="440" width="10" height="10"></rect>
<rect x="190" y="440" width="10" height="10"></rect>
<rect x="200" y="440" width="10" height="10"></rect>
<rect x="210" y="440" width="10" height="10"></rect>
<rect x="220" y="440" width="10" height="10"></rect>
<rect x="230" y="440" width="10" height="10"></rect>
<rect x="240" y="440" width="10" height="10"></rect>
<rect x="120" y="450" width="10" height="10"></rect>
<rect x="130" y="450" width="10" height="10"></rect>
<rect x="140" y="450" width="10" height="10"></rect>
<rect x="170" y="450" width="10" height="10"></rect>
<rect x="180" y="450" width="10" height="10"></rect>
<rect x="190" y="450" width="10" height="10"></rect>
<rect x="200" y="450" width="10" height="10"></rect>
<rect x="220" y="450" width="10" height="10"></rect>
<rect x="230" y="450" width="10" height="10"></rect>
<rect x="240" y="450" width="10" height="10"></rect>
<rect x="120" y="460" width="10" height="10"></rect>
<rect x="130" y="460" width="10" height="10"></rect>
<rect x="140" y="460" width="10" height="10"></rect>
<rect x="150" y="460" width="10" height="10"></rect>
<rect x="170" y="460" width="10" height="10"></rect>
<rect x="190" y="460" width="10" height="10"></rect>
<rect x="200" y="460" width="10" height="10"></rect>
<rect x="210" y="460" width="10" height="10"></rect>
<rect x="240" y="460" width="10" height="10"></rect>
<rect x="120" y="470" width="10" height="10"></rect>
<rect x="140" y="470" width="10" height="10"></rect>
<rect x="150" y="470" width="10" height="10"></rect>
<rect x="170" y="470" width="10" height="10"></rect>
<rect x="180" y="470" width="10" height="10"></rect>
<rect x="190" y="470" width="10" height="10"></rect>
<rect x="200" y="470" width="10" height="10"></rect>
<rect x="210" y="470" width="10" height="10"></rect>
<rect x="100" y="480" width="10" height="10"></rect>
<rect x="130" y="480" width="10" height="10"></rect>
<rect x="140" y="480" width="10" height="10"></rect>
<rect x="150" y="480" width="10" height="10"></rect>
<rect x="160" y="480" width="10" height="10"></rect>
<rect x="170" y="480" width="10" height="10"></rect>
<rect x="180" y="480" width="10" height="10"></rect>
<rect x="200" y="480" width="10" height="10"></rect>
<rect x="220" y="480" width="10" height="10"></rect>
<rect x="120" y="490" width="10" height="10"></rect>
<rect x="130" y="490" width="10" height="10"></rect>
<rect x="140" y="490" width="10" height="10"></rect>
<rect x="170" y="490" width="10" height="10"></rect>
<rect x="180" y="490" width="10" height="10"></rect>
<rect x="190" y="490" width="10" height="10"></rect>
<rect x="200" y="490" width="10" height="10"></rect>
<rect x="210" y="490" width="10" height="10"></rect>
<rect x="220" y="490" width="10" height="10"></rect>
<rect x="130" y="500" width="10" height="10"></rect>
<rect x="140" y="500" width="10" height="10"></rect>
<rect x="190" y="500" width="10" height="10"></rect>
<rect x="200" y="500" width="10" height="10"></rect>
<rect x="210" y="500" width="10" height="10"></rect>
<rect x="220" y="500" width="10" height="10"></rect>
<rect x="230" y="500" width="10" height="10"></rect>
<rect x="180" y="510" width="10" height="10"></rect>
<rect x="190" y="510" width="10" height="10"></rect>
<rect x="200" y="510" width="10" height="10"></rect>
<rect x="210" y="510" width="10" height="10"></rect>
<rect x="220" y="510" width="10" height="10"></rect>
<rect x="180" y="520" width="10" height="10"></rect>
<rect x="190" y="520" width="10" height="10"></rect>
<rect x="230" y="520" width="10" height="10"></rect>
<rect x="130" y="530" width="10" height="10"></rect>
<rect x="170" y="530" width="10" height="10"></rect>
<rect x="180" y="530" width="10" height="10"></rect>
<rect x="230" y="530" width="10" height="10"></rect>
<rect x="240" y="530" width="10" height="10"></rect>
<rect x="170" y="540" width="10" height="10"></rect>
<rect x="180" y="540" width="10" height="10"></rect>
<rect x="190" y="540" width="10" height="10"></rect>
<rect x="200" y="540" width="10" height="10"></rect>
<rect x="210" y="540" width="10" height="10"></rect>
<rect x="230" y="540" width="10" height="10"></rect>
<rect x="240" y="540" width="10" height="10"></rect>
<rect x="250" y="540" width="10" height="10"></rect>
<rect x="260" y="540" width="10" height="10"></rect>
<rect x="170" y="550" width="10" height="10"></rect>
<rect x="180" y="550" width="10" height="10"></rect>
<rect x="190" y="550" width="10" height="10"></rect>
<rect x="200" y="550" width="10" height="10"></rect>
<rect x="230" y="550" width="10" height="10"></rect>
<rect x="240" y="550" width="10" height="10"></rect>
<rect x="250" y="550" width="10" height="10"></rect>
<rect x="260" y="550" width="10" height="10"></rect>
<rect x="180" y="560" width="10" height="10"></rect>
<rect x="210" y="560" width="10" height="10"></rect>
<rect x="230" y="560" width="10" height="10"></rect>
<rect x="240" y="560" width="10" height="10"></rect>
<rect x="180" y="570" width="10" height="10"></rect>
<rect x="190" y="570" width="10" height="10"></rect>
<rect x="200" y="570" width="10" height="10"></rect>
<rect x="210" y="570" width="10" height="10"></rect>
</svg>