<svg xmlns="http://www.w3.org/2000/svg" viewBox="0 0 550 690" fill="currentColor" shape-rendering="crispEdges"><rect x="360" y="10" width="10" height="10"></rect><rect x="310" y="20" width="30" height="10"></rect><rect x="380" y="20" width="20" height="10"></rect><rect x="360" y="30" width="60" height="10"></rect><rect x="310" y="40" width="10" height="10"></rect><rect x="340" y="40" width="50" height="10"></rect><rect x="400" y="40" width="20" height="10"></rect><rect x="310" y="50" width="10" height="10"></rect><rect x="330" y="50" width="10" height="10"></rect><rect x="350" y="50" width="50" height="10"></rect><rect x="410" y="50" width="20" height="10"></rect><rect x="310" y="60" width="10" height="10"></rect><rect x="340" y="60" width="90" height="10"></rect><rect x="300" y="70" width="130" height="10"></rect><rect x="270" y="80" width="10" height="10"></rect><rect x="300" y="80" width="20" height="10"></rect><rect x="330" y="80" width="80" height="10"></rect><rect x="420" y="80" width="20" height="10"></rect><rect x="290" y="90" width="10" height="10"></rect><rect x="330" y="90" width="100" height="10"></rect><rect x="300" y="100" width="40" height="10"></rect><rect x="350" y="100" width="100" height="10"></rect><rect x="270" y="110" width="80" height="10"></rect><rect x="360" y="110" width="100" height="10"></rect><rect x="280" y="120" width="10" height="10"></rect><rect x="300" y="120" width="160" height="10"></rect><rect x="270" y="130" width="200" height="10"></rect><rect x="270" y="140" width="200" height="10"></rect><rect x="260" y="150" width="80" height="10"></rect><rect x="350" y="150" width="40" height="10"></rect><rect x="420" y="150" width="50" height="10"></rect><rect x="270" y="160" width="120" height="10"></rect><rect x="430" y="160" width="50" height="10"></rect><rect x="260" y="170" width="130" height="10"></rect><rect x="210" y="180" width="10" height="10"></rect><rect x="270" y="180" width="120" height="10"></rect><rect x="260" y="190" width="50" height="10"></rect><rect x="320" y="190" width="70" height="10"></rect><rect x="200" y="200" width="10" height="10"></rect><rect x="260" y="200" width="120" height="10"></rect><rect x="210" y="210" width="10" height="10"></rect><rect x="250" y="210" width="140" height="10"></rect><rect x="160" y="220" width="10" height="10"></rect><rect x="240" y="220" width="130" height="10"></rect><rect x="380" y="220" width="40" height="10"></rect><rect x="180" y="230" width="10" height="10"></rect><rect x="220" y="230" width="30" height="10"></rect><rect x="260" y="230" width="10" height="10"></rect><rect x="280" y="230" width="70" height="10"></rect><rect x="360" y="230" width="10" height="10"></rect><rect x="380" y="230" width="10" height="10"></rect><rect x="200" y="240" width="150" height="10"></rect><rect x="160" y="250" width="10" height="10"></rect><rect x="180" y="250" width="20" height="10"></rect><rect x="210" y="250" width="130" height="10"></rect><rect x="360" y="250" width="10" height="10"></rect><rect x="390" y="250" width="10" height="10"></rect><rect x="220" y="260" width="180" height="10"></rect><rect x="110" y="270" width="10" height="10"></rect><rect x="180" y="270" width="40" height="10"></rect><rect x="240" y="270" width="160" height="10"></rect><rect x="480" y="270" width="10" height="10"></rect><rect x="110" y="280" width="20" height="10"></rect><rect x="140" y="280" width="290" height="10"></rect><rect x="450" y="280" width="50" height="10"></rect><rect x="90" y="290" width="10" height="10"></rect><rect x="150" y="290" width="270" height="10"></rect><rect x="460" y="290" width="50" height="10"></rect><rect x="120" y="300" width="10" height="10"></rect><rect x="150" y="300" width="150" height="10"></rect><rect x="310" y="300" width="190" height="10"></rect><rect x="70" y="310" width="40" height="10"></rect><rect x="120" y="310" width="20" height="10"></rect><rect x="160" y="310" width="300" height="10"></rect><rect x="480" y="310" width="40" height="10"></rect><rect x="80" y="320" width="20" height="10"></rect><rect x="120" y="320" width="10" height="10"></rect><rect x="160" y="320" width="350" height="10"></rect><rect x="80" y="330" width="450" height="10"></rect><rect x="80" y="340" width="320" height="10"></rect><rect x="410" y="340" width="80" height="10"></rect><rect x="500" y="340" width="40" height="10"></rect><rect x="40" y="350" width="30" height="10"></rect><rect x="90" y="350" width="80" height="10"></rect><rect x="180" y="350" width="200" height="10"></rect><rect x="410" y="350" width="20" height="10"></rect><rect x="460" y="350" width="10" height="10"></rect><rect x="480" y="350" width="10" height="10"></rect><rect x="500" y="350" width="40" height="10"></rect><rect x="10" y="360" width="10" height="10"></rect><rect x="30" y="360" width="350" height="10"></rect><rect x="460" y="360" width="10" height="10"></rect><rect x="490" y="360" width="10" height="10"></rect><rect x="510" y="360" width="10" height="10"></rect><rect x="530" y="360" width="10" height="10"></rect><rect x="60" y="370" width="290" height="10"></rect><rect x="480" y="370" width="60" height="10"></rect><rect x="40" y="380" width="290" height="10"></rect><rect x="340" y="380" width="10" height="10"></rect><rect x="460" y="380" width="50" height="10"></rect><rect x="40" y="390" width="300" height="10"></rect><rect x="470" y="390" width="50" height="10"></rect><rect x="40" y="400" width="150" height="10"></rect><rect x="200" y="400" width="30" height="10"></rect><rect x="240" y="400" width="30" height="10"></rect><rect x="460" y="400" width="70" height="10"></rect><rect x="40" y="410" width="200" height="10"></rect><rect x="260" y="410" width="10" height="10"></rect><rect x="450" y="410" width="30" height="10"></rect><rect x="490" y="410" width="20" height="10"></rect><rect x="520" y="410" width="10" height="10"></rect><rect x="50" y="420" width="50" height="10"></rect><rect x="140" y="420" width="40" height="10"></rect><rect x="190" y="420" width="50" height="10"></rect><rect x="460" y="420" width="20" height="10"></rect><rect x="40" y="430" width="40" height="10"></rect><rect x="140" y="430" width="30" height="10"></rect><rect x="180" y="430" width="50" height="10"></rect><rect x="470" y="430" width="10" height="10"></rect><rect x="40" y="440" width="70" height="10"></rect><rect x="140" y="440" width="70" height="10"></rect><rect x="40" y="450" width="80" height="10"></rect><rect x="140" y="450" width="80" height="10"></rect><rect x="40" y="460" width="80" height="10"></rect><rect x="150" y="460" width="70" height="10"></rect><rect x="40" y="470" width="80" height="10"></rect><rect x="140" y="470" width="80" height="10"></rect><rect x="50" y="480" width="50" height="10"></rect><rect x="140" y="480" width="80" height="10"></rect><rect x="50" y="490" width="30" height="10"></rect><rect x="140" y="490" width="80" height="10"></rect><rect x="60" y="500" width="40" height="10"></rect><rect x="140" y="500" width="80" height="10"></rect><rect x="60" y="510" width="40" height="10"></rect><rect x="140" y="510" width="30" height="10"></rect><rect x="180" y="510" width="40" height="10"></rect><rect x="30" y="520" width="10" height="10"></rect><rect x="60" y="520" width="40" height="10"></rect><rect x="150" y="520" width="50" height="10"></rect><rect x="60" y="530" width="50" height="10"></rect><rect x="130" y="530" width="80" height="10"></rect><rect x="70" y="540" width="40" height="10"></rect><rect x="130" y="540" width="60" height="10"></rect><rect x="70" y="550" width="40" height="10"></rect><rect x="120" y="550" width="70" height="10"></rect><rect x="70" y="560" width="40" height="10"></rect><rect x="120" y="560" width="60" height="10"></rect><rect x="80" y="570" width="20" height="10"></rect><rect x="120" y="570" width="20" height="10"></rect><rect x="150" y="570" width="50" height="10"></rect><rect x="50" y="580" width="50" height="10"></rect><rect x="140" y="580" width="70" height="10"></rect><rect x="70" y="590" width="10" height="10"></rect><rect x="140" y="590" width="20" height="10"></rect><rect x="190" y="590" width="10" height="10"></rect><rect x="130" y="600" width="30" height="10"></rect><rect x="130" y="610" width="20" height="10"></rect><rect x="190" y="610" width="30" height="10"></rect><rect x="130" y="620" width="20" height="10"></rect><rect x="230" y="620" width="10" height="10"></rect><rect x="130" y="630" width="40" height="10"></rect><rect x="190" y="630" width="60" height="10"></rect><rect x="130" y="640" width="50" height="10"></rect><rect x="200" y="640" width="50" height="10"></rect><rect x="130" y="650" width="30" height="10"></rect><rect x="200" y="650" width="20" height="10"></rect><rect x="230" y="650" width="20" height="10"></rect><rect x="130" y="660" width="10" height="10"></rect><rect x="220" y="660" width="10" height="10"></rect><rect x="150" y="670" width="30" height="10"></rect></svg>